<?xml version="1.0" encoding="iso-8859-1"?>
<!-- Generator: Adobe Illustrator 25.0.1, SVG Export Plug-In . SVG Version: 6.00 Build 0)  -->
<svg version="1.1" width="31" height="31" id="Layer_1" xmlns="http://www.w3.org/2000/svg" xmlns:xlink="http://www.w3.org/1999/xlink" x="0px" y="0px"
	 viewBox="0 0 384 540" style="enable-background:new 0 0 384 540;" xml:space="preserve">
<rect x="-208.282" y="-237.805" style="display:none;fill:#FBFBFB;" width="1000" height="1000"/>
<linearGradient id="SVGID_1_" gradientUnits="userSpaceOnUse" x1="156.7273" y1="455.9787" x2="284.8703" y2="66.2113">
	<stop  offset="0" style="stop-color:#E4332D"/>
	<stop  offset="0.1031" style="stop-color:#E84330"/>
	<stop  offset="0.4042" style="stop-color:#F26C3A"/>
	<stop  offset="0.5591" style="stop-color:#F67C3D"/>
	<stop  offset="1" style="stop-color:#FFD918"/>
</linearGradient>
<path style="fill:url(#SVGID_1_);" d="M191.523,358.261c-35.082-22.641-81.7-5.349-81.884-5.349
	c-8.783,0-31.828-15.597-31.828-25.316c0-6.779,27.753-23.436,47.172-37.338c8.388-5.985,15.24-11.493,17.621-15.438
	c5.185-8.659,17.462-29.923,32.543-47.719c-1.165-17.477-3.467-45.812,1.824-60.006c8.388,3.919,16.907,10.831,24.527,19.331
	c1.508-11.36,4.259-24.442,8.069-34.796c4.524,1.827,9.074,4.687,13.494,8.289c15.953,13.082,29.975,36.12,33.388,55.478
	c0,0,0,0,0.001,0c19.236,4.855,53.177,19.821,76.988,46.176c-5.033-0.947-9.367-1.477-12.602-1.776
	c15.218,8.611,38.765,25.849,52.123,50.435c-4.342-1.956-8.1-3.336-10.77-4.227c8.016,11.167,15.408,23.151,21.81,36.05
	C372.836,226.651,331.615,106.692,225.019,0c0,122.21-102.204,173.027-168.85,248.842C23.918,285.518,0,328.046,0,387.364
	C0,487.647,68.842,540,127.921,540c59.502,0,104.294-46.898,104.294-104.362C232.216,394.725,218.404,375.606,191.523,358.261z"/>
<linearGradient id="SVGID_2_" gradientUnits="userSpaceOnUse" x1="202.2995" y1="210.6437" x2="226.0038" y2="179.5065">
	<stop  offset="0" style="stop-color:#FFFFFF"/>
	<stop  offset="0.1047" style="stop-color:#FFFAFA"/>
	<stop  offset="0.236" style="stop-color:#FDEBEA"/>
	<stop  offset="0.3816" style="stop-color:#FBD3D1"/>
	<stop  offset="0.5373" style="stop-color:#F8B1AD"/>
	<stop  offset="0.7014" style="stop-color:#F5867F"/>
	<stop  offset="0.8698" style="stop-color:#F05248"/>
	<stop  offset="0.9194" style="stop-color:#EF4136"/>
</linearGradient>
<path style="fill:url(#SVGID_2_);" d="M209.007,278.554c-4.842,0.609-8.016,0.821-8.016,0.821l-25.769-52.273
	c-1.165-17.478-3.467-45.812,1.824-60.006c8.388,3.919,16.907,10.831,24.527,19.331
	C200.938,191.352,199.059,217.727,209.007,278.554z"/>
<g>
	<path style="fill:#F16638;" d="M177.879,255.259c5.824-2.416,10.283-3.309,15.712-3.663c1.845-0.131,3.642,1.095,4.093,2.936
		c0.328,1.341-0.597,3.372-2.077,4.196c-4.54,2.524-6.812,4.569-10.578,7.445C176.557,272.644,169.032,258.929,177.879,255.259z"/>
</g>
<linearGradient id="SVGID_3_" gradientUnits="userSpaceOnUse" x1="205.8641" y1="461.1997" x2="211.3321" y2="297.6432" gradientTransform="matrix(1 0.0062 -0.0062 1 -3.23 -28.5639)">
	<stop  offset="0.1915" style="stop-color:#FFFFFF"/>
	<stop  offset="0.2724" style="stop-color:#FEF8F8"/>
	<stop  offset="0.3912" style="stop-color:#FCE5E4"/>
	<stop  offset="0.5336" style="stop-color:#F7C5C4"/>
	<stop  offset="0.6941" style="stop-color:#F29A97"/>
	<stop  offset="0.8675" style="stop-color:#EA625E"/>
	<stop  offset="1" style="stop-color:#E4332D"/>
</linearGradient>
<path style="opacity:0.5;fill:url(#SVGID_3_);" d="M290.467,400.278c-0.087,14.167-23.449,44.211-60.151,53.438
	c1.015-5.82,1.555-11.801,1.592-17.892c0.253-40.912-13.44-60.117-40.214-77.628c-29.012-18.982-66.131-10.472-78.007-7.05
	c29.703-11.23,48.302-36.775,90.922-32.036c-6.229,10.554-7.203,13.858-7.203,13.858s58.471,4.546,81.219,30.956
	c-8.149-0.05-16.106,3.211-16.106,3.211S277.527,379.277,290.467,400.278z"/>
<path style="opacity:0.2;fill:#BE1E2D;" d="M232.207,435.638c0,57.464-44.791,104.362-104.294,104.362
	c-15.715,0-32.119-3.707-47.729-11.043c65.341,14.582,140.744-23.621,140.744-93.425c0-66.944-51.592-92.807-102.328-85.242
	c52.387-11.397,73.458,8.951,74.398,8.951C218.899,376.321,232.207,395.493,232.207,435.638z"/>
<linearGradient id="SVGID_4_" gradientUnits="userSpaceOnUse" x1="131.8439" y1="283.4045" x2="186.125" y2="39.8019">
	<stop  offset="0" style="stop-color:#FFFFFF"/>
	<stop  offset="1" style="stop-color:#E4332D"/>
</linearGradient>
<path style="opacity:0.5;fill:url(#SVGID_4_);" d="M256.597,215.437c1.226,0.311,2.513,0.665,3.85,1.058
	c3.969-32.627,3.275-55.272-1.642-82.541c3.466-0.821,11.668,0.291,16.881,1.668C267.337,82.66,249.835,47.207,225.019,0
	c0,1.377-0.026,2.728-0.053,4.052c0,0.026,0,0.026,0,0.026c0,1.351-0.053,2.675-0.106,4.025v0.291
	C219.621,142.123,89.187,188.439,29.421,284.353c-0.159,0.238-0.292,0.477-0.424,0.689c-7.831,12.658-14.42,26.19-19.34,40.887
	c-0.027,0.053-0.053,0.132-0.053,0.212C3.492,344.491,0,364.722,0,387.364c0,28.335,5.503,52.882,14.736,73.458
	c24.314,19.887,64.186,11.466,129.535-49.466c18.785-17.504,34.95-34.902,48.708-52.115c-0.477-0.344-0.952-0.662-1.456-0.98
	c-6.534-4.211-13.466-7.044-20.424-8.845c-29.447-7.732-59.397,2.807-61.354,3.442c-0.027,0.027-0.027,0.027-0.027,0.053h-0.079
	c-0.53,0-1.111-0.079-1.719-0.185c-0.899-0.159-1.931-0.45-2.989-0.794c-2.594-0.9-5.583-2.357-8.626-4.131
	c-9.048-5.429-18.414-14.008-18.414-20.205c0-9.718,56.936-39.668,64.793-52.776c5.186-8.659,17.462-29.923,32.543-47.719
	c-1.164-17.477-3.466-45.786,1.825-59.979v-0.027c8.361,3.919,16.854,10.778,24.447,19.252c0.026,0.026,0.052,0.053,0.079,0.079
	c1.508-11.36,4.259-24.415,8.069-34.77v-0.027c20.928,8.395,42.518,39.059,46.883,63.766
	C256.553,215.41,256.575,215.423,256.597,215.437z"/>
<g>
	<path style="display:none;fill:#EC5334;" d="M321.712,405.784v5.699h12.7v6.513h-12.7v9.811h-8.467v-28.535h22.144v6.513H321.712z"
		/>
	<path style="display:none;fill:#EC5334;" d="M371.981,413.519c0,8.384-6.593,14.654-15.548,14.654
		c-8.955,0-15.551-6.229-15.551-14.654c0-8.387,6.595-14.491,15.551-14.491C365.388,399.028,371.981,405.174,371.981,413.519z
		 M349.552,413.56c0,4.314,3.256,7.529,7.001,7.529s6.759-3.215,6.759-7.529c0-4.316-3.014-7.451-6.759-7.451
		C352.768,406.109,349.552,409.244,349.552,413.56z"/>
	<path style="display:none;fill:#EC5334;" d="M405.152,427.806h-10.175l-5.414-8.141l-5.332,8.141h-9.893l10.095-14.533
		l-9.444-14.003h9.852l4.722,7.451l4.763-7.451h9.971l-9.32,13.638L405.152,427.806z"/>
	<path style="display:none;fill:#EC5334;" d="M428.185,405.784v5.699h12.7v6.513h-12.7v9.811h-8.467v-28.535h22.144v6.513H428.185z"
		/>
	<path style="display:none;fill:#EC5334;" d="M469.415,420.725v7.081H448.98v-28.535h8.467v21.454H469.415z"/>
	<path style="display:none;fill:#EC5334;" d="M484.147,423.247l-1.711,4.559h-8.71l12.17-28.535h8.712l11.764,28.535h-9.038
		l-1.67-4.559H484.147z M490.009,407.737l-3.499,9.322h6.919L490.009,407.737z"/>
	<path style="display:none;fill:#EC5334;" d="M537.02,427.806l-0.041-16.892l-5.74,14.083h-5.536l-5.74-14.083v16.892h-7.448
		v-28.535h9.077l6.88,15.794l6.88-15.794h9.077v28.535H537.02z"/>
	<path style="display:none;fill:#EC5334;" d="M561.764,405.784v4.479h13.475v6.513h-13.475v4.518h15.264v6.513h-23.731v-28.535
		h23.325v6.513H561.764z"/>
</g>
<g>
	<path style="display:none;fill:#EC5334;" d="M383.657,452.343v9.689h-4.417v-8.402c0-1.949-1.145-3.153-3.039-3.153
		c-2.207,0.031-3.554,1.693-3.554,3.957v7.598h-4.417v-21.273h4.417v8.57c1.088-1.92,2.923-2.866,5.332-2.895
		C381.45,446.435,383.657,448.73,383.657,452.343z"/>
	<path style="display:none;fill:#EC5334;" d="M403.374,454.32c0,4.701-3.326,7.885-8.257,7.885c-4.96,0-8.286-3.184-8.286-7.885
		c0-4.732,3.326-7.857,8.286-7.857C400.048,446.463,403.374,449.588,403.374,454.32z M391.274,454.377
		c0,2.522,1.548,4.244,3.843,4.244c2.264,0,3.84-1.721,3.84-4.244c0-2.525-1.576-4.244-3.84-4.244
		C392.822,450.133,391.274,451.852,391.274,454.377z"/>
	<path style="display:none;fill:#EC5334;" d="M416.55,461.172c-1.147,0.662-2.579,1.06-4.014,1.06c-2.752,0-4.846-1.577-4.846-4.758
		v-7.138h-2.15v-3.039h2.15v-4.244h4.388v4.244h4.184v3.068h-4.184v6.363c0,1.292,0.543,1.809,1.489,1.778
		c0.574,0,1.264-0.199,2.065-0.574L416.55,461.172z"/>
	<path style="display:none;fill:#EC5334;" d="M437.096,461.172c-1.147,0.662-2.579,1.06-4.014,1.06
		c-2.752,0-4.846-1.577-4.846-4.758v-7.138h-2.15v-3.039h2.15v-4.244h4.388v4.244h4.184v3.068h-4.184v6.363
		c0,1.292,0.543,1.809,1.489,1.778c0.574,0,1.264-0.199,2.065-0.574L437.096,461.172z"/>
	<path style="display:none;fill:#EC5334;" d="M449.419,460.226c-1.031,1.292-2.696,2.006-4.846,2.006
		c-3.295,0-5.303-2.006-5.303-4.815c0-2.897,2.093-4.616,5.877-4.644h4.244v-0.287c0-1.636-1.088-2.582-3.21-2.582
		c-1.378,0-2.983,0.46-4.588,1.349l-1.377-3.039c2.295-1.147,4.272-1.778,6.968-1.778c4.127,0,6.508,2.065,6.536,5.533l0.028,10.064
		h-4.329V460.226z M449.391,456.757v-1.378h-3.468c-1.693,0-2.525,0.517-2.525,1.75c0,1.176,0.92,1.949,2.409,1.949
		C447.67,459.078,449.132,458.076,449.391,456.757z"/>
	<path style="display:none;fill:#EC5334;" d="M472.721,460.598c0,4.388-3.298,7.169-8.229,7.169c-2.608,0-4.931-0.832-6.709-2.036
		l1.636-3.096c1.403,1.003,3.039,1.548,4.786,1.548c2.525,0,4.13-1.346,4.13-3.44v-1.75c-1.034,1.434-2.61,2.236-4.644,2.236
		c-3.985,0-6.738-2.982-6.738-7.454c0-4.358,2.693-7.311,6.621-7.311c2.094-0.028,3.698,0.804,4.761,2.236v-2.094h4.386V460.598z
		 M468.335,453.889c0-2.378-1.463-4.014-3.613-4.014c-2.15,0-3.613,1.662-3.642,4.014c0.028,2.352,1.463,3.985,3.642,3.985
		C466.872,457.874,468.335,456.241,468.335,453.889z"/>
	<path style="display:none;fill:#EC5334;" d="M477.613,462.032v-21.273h4.417v21.273H477.613z"/>
	<path style="display:none;fill:#EC5334;" d="M491.743,442.22c0,1.434-0.974,2.468-2.38,2.468c-1.403,0-2.38-1.034-2.38-2.468
		c0-1.434,0.977-2.466,2.38-2.466C490.768,439.754,491.743,440.785,491.743,442.22z M487.155,462.032v-15.427h4.414v15.427H487.155z
		"/>
	<path style="display:none;fill:#EC5334;" d="M511.922,452.343v9.689h-4.414v-8.402c0-1.949-1.148-3.153-3.039-3.153
		c-2.207,0.031-3.528,1.693-3.528,3.957v7.598h-4.414v-15.427h4.414v2.698c1.091-1.923,2.926-2.84,5.334-2.869
		C509.715,446.435,511.922,448.73,511.922,452.343z"/>
	<path style="display:none;fill:#EC5334;" d="M530.634,455.667h-11.067c0.517,1.949,2.008,3.096,3.985,3.096
		c1.463,0,2.838-0.574,3.9-1.633l2.323,2.352c-1.551,1.721-3.815,2.724-6.596,2.724c-4.931,0-8.056-3.156-8.056-7.828
		c0-4.758,3.238-7.914,7.942-7.914C528.484,446.463,531.009,450.048,530.634,455.667z M526.507,453.056
		c-0.057-2.034-1.378-3.355-3.411-3.355c-1.951,0-3.269,1.321-3.613,3.355H526.507z"/>
</g>
</svg>
