<svg width="31" height="31" viewBox="0 0 31 31" fill="none" xmlns="http://www.w3.org/2000/svg">
<path d="M27.4438 12.5319V30.7396H3.55664V12.5319L15.5675 0.880676L27.4438 12.5319Z" fill="#E9EAEF"/>
<path d="M21.5989 6.10349V2.74023H27.5707V11.7907" fill="#9EB1B7"/>
<path d="M21.5989 6.10349V2.74023H23.0331V11.7907" fill="#879BA0"/>
<path d="M27.4438 13.2467V16.65L15.5002 5.24639L3.55664 16.65V13.2467L14.5516 2.77504L15.5002 1.89392L16.4481 2.77504L27.4438 13.2467Z" fill="#D2D4D8"/>
<path d="M15.4999 3.35247L1.90147 16.3355L0 14.7393L14.5518 0.880702L15.4999 0L16.4482 0.880702L31 14.7393L29.0985 16.3355L15.4999 3.35247Z" fill="#F26A38"/>
<path d="M14.356 17.098H6.47852V30.7394H14.356V17.098Z" fill="#C97523"/>
<path d="M14.9236 30.7396H13.79V17.6646H7.04593V30.7396H5.91235V17.0978C5.91235 16.7847 6.16606 16.531 6.47914 16.531H14.3569C14.6699 16.531 14.9237 16.7847 14.9237 17.0978V30.7396H14.9236Z" fill="#8E480E"/>
<path d="M25.6153 17.098H16.6443V24.9755H25.6153V17.098Z" fill="#A0D9F2"/>
<path d="M25.6153 17.098H16.6443V19.4918H25.6153V17.098Z" fill="#C97523"/>
<path d="M25.6147 25.5424H16.6439C16.3309 25.5424 16.0771 25.2887 16.0771 24.9756V17.098C16.0771 16.7849 16.3309 16.5312 16.6439 16.5312H25.6148C25.9278 16.5312 26.1816 16.7849 26.1816 17.098V24.9756C26.1815 25.2885 25.9278 25.5424 25.6147 25.5424ZM17.2107 24.4088H25.048V17.6648H17.2107V24.4088Z" fill="#8E480E"/>
<path d="M12.5864 24.4418H11.443C11.1299 24.4418 10.8762 24.1881 10.8762 23.875C10.8762 23.5619 11.1299 23.3082 11.443 23.3082H12.5864C12.8995 23.3082 13.1532 23.5619 13.1532 23.875C13.1532 24.1881 12.8994 24.4418 12.5864 24.4418Z" fill="#8E480E"/>
<path d="M15.5001 13.202C16.7104 13.202 17.6914 12.2209 17.6914 11.0107C17.6914 9.80048 16.7104 8.8194 15.5001 8.8194C14.2899 8.8194 13.3088 9.80048 13.3088 11.0107C13.3088 12.2209 14.2899 13.202 15.5001 13.202Z" fill="#413740"/>
<path d="M25.6153 18.9248H16.6443V20.0584H25.6153V18.9248Z" fill="#8E480E"/>
<path d="M15.5004 13.7693C13.9794 13.7693 12.7419 12.5319 12.7419 11.0109C12.7419 9.48987 13.9793 8.25244 15.5004 8.25244C17.0214 8.25244 18.2589 9.48987 18.2589 11.0109C18.2588 12.5319 17.0214 13.7693 15.5004 13.7693ZM15.5004 9.38602C14.6045 9.38602 13.8755 10.1149 13.8755 11.0109C13.8755 11.9068 14.6044 12.6357 15.5004 12.6357C16.3963 12.6357 17.1253 11.9068 17.1253 11.0109C17.1253 10.1149 16.3963 9.38602 15.5004 9.38602Z" fill="#F26A38"/>
</svg>
