<?xml version="1.0" standalone="no"?>
<!DOCTYPE svg PUBLIC "-//W3C//DTD SVG 20010904//EN"
 "http://www.w3.org/TR/2001/REC-SVG-20010904/DTD/svg10.dtd">
<svg version="1.0" xmlns="http://www.w3.org/2000/svg"
 width="31" height="31" viewBox="0 0 960.000000 719.000000"
 preserveAspectRatio="xMidYMid meet">
 <linearGradient id="foxygradient" x1="0%" y1="0%" x2="100%" y2="0%">
      <stop offset="0%" style="stop-color:rgb(255,255,0);stop-opacity:1" />
      <stop offset="100%" style="stop-color:rgb(255,0,0);stop-opacity:1" />
    </linearGradient>

<g transform="translate(0.000000,719.000000) scale(0.100000,-0.100000)"
fill="url(#foxygradient)" stroke="none">
<path d="M4520 7183 c-263 -28 -551 -113 -734 -218 -43 -24 -83 -42 -89 -38
-5 3 -7 1 -4 -4 7 -11 -39 -46 -60 -46 -7 0 -10 -4 -7 -8 5 -9 -31 -31 -38
-23 -3 2 -11 -4 -19 -13 -13 -17 -13 -17 6 -3 11 8 2 -5 -20 -28 -47 -50 -54
-53 -24 -9 19 28 16 26 -24 -12 -26 -25 -44 -47 -41 -50 3 -3 9 1 14 9 6 8 10
12 10 7 0 -5 -67 -93 -97 -127 -2 -2 -1 4 3 15 7 20 6 20 -9 0 -11 -15 -12
-22 -4 -27 9 -6 8 -8 -1 -8 -7 0 -11 -4 -7 -10 3 -5 -3 -18 -14 -29 -11 -11
-17 -22 -14 -25 4 -3 1 -6 -6 -6 -7 0 -10 -4 -7 -8 7 -11 -26 -99 -37 -100 -5
0 -12 -4 -15 -8 -4 -4 -1 -4 7 1 17 10 11 -20 -28 -136 -18 -56 -32 -83 -41
-81 -10 2 -11 0 -2 -10 7 -10 8 -18 0 -28 -8 -12 -9 -11 -4 5 6 20 6 20 -9 1
-11 -14 -12 -22 -4 -27 6 -4 8 -12 5 -18 -4 -6 -12 -9 -17 -6 -5 4 -9 -1 -9
-10 0 -9 5 -13 10 -10 15 10 -11 -47 -32 -68 -10 -10 -18 -23 -18 -29 0 -7 6
-3 14 8 12 16 12 12 0 -34 -28 -109 -37 -261 -30 -502 8 -288 20 -431 40 -490
l15 -45 -20 25 -20 25 17 -36 c9 -19 25 -39 37 -45 11 -5 22 -16 24 -24 3 -10
-1 -8 -11 4 -9 11 -16 15 -16 9 0 -14 39 -48 47 -40 3 4 0 7 -7 7 -7 0 -11 2
-8 5 2 3 19 -2 36 -11 25 -12 36 -13 54 -3 22 12 22 11 8 -7 -14 -18 -13 -18
8 1 13 11 19 21 13 23 -7 2 -7 10 2 25 8 16 12 95 13 277 1 225 4 267 24 355
22 100 39 148 40 113 0 -9 -4 -28 -10 -42 -6 -17 -6 -26 0 -26 18 0 30 48 20
76 -8 19 -7 31 2 42 7 8 12 17 11 19 -12 15 0 22 12 7 14 -18 14 -17 5 9 -7
19 -7 34 0 45 5 10 10 12 10 5 0 -7 7 -13 15 -13 8 0 15 -3 15 -7 -1 -17 -29
-58 -39 -58 -6 0 -10 -4 -8 -10 1 -5 5 -9 9 -8 4 2 0 -16 -8 -40 -45 -126 -51
-221 -39 -563 5 -136 4 -203 -3 -208 -6 -4 -9 3 -6 16 2 13 -2 7 -9 -12 -10
-25 -11 -37 -3 -42 7 -5 4 -8 -6 -8 -10 0 -18 -5 -18 -11 0 -5 6 -7 13 -3 8 5
8 3 -2 -9 -7 -9 -18 -14 -24 -10 -6 3 -7 1 -3 -5 4 -7 -11 -24 -35 -42 -44
-31 -65 -39 -53 -17 4 6 -5 1 -20 -13 -15 -13 -23 -26 -19 -27 5 -2 7 -19 5
-38 -2 -19 1 -49 7 -67 7 -21 8 -34 2 -36 -15 -5 -1 -32 18 -32 11 0 12 -3 4
-8 -9 -5 -7 -16 9 -40 23 -37 34 -43 18 -9 -10 20 -9 20 9 -3 14 -18 16 -27 8
-32 -8 -5 -7 -8 4 -8 9 0 23 -8 30 -17 13 -17 13 -17 -5 -3 -18 14 -19 14 -8
-7 7 -12 17 -25 24 -29 7 -5 8 -2 3 7 -5 8 4 3 18 -10 15 -13 24 -27 22 -32
-3 -4 0 -11 6 -15 8 -5 9 -3 4 6 -5 8 -3 11 6 8 8 -3 13 -10 12 -15 -1 -5 6
-9 15 -10 9 -1 38 -6 64 -11 26 -5 45 -5 42 0 -3 4 1 8 8 8 7 0 48 14 91 30
43 17 83 28 89 24 6 -4 8 -3 5 3 -4 5 16 15 44 21 61 14 82 15 74 3 -3 -5 0
-13 6 -17 8 -4 9 -3 5 4 -18 29 29 8 67 -29 23 -23 34 -36 24 -29 -15 11 -17
10 -11 -4 3 -9 13 -16 21 -16 13 0 13 -3 3 -15 -11 -14 -7 -19 12 -16 4 0 12
-25 18 -57 28 -140 43 -190 70 -241 19 -36 23 -48 10 -32 -26 31 -26 17 1 -20
11 -16 24 -27 28 -24 10 5 43 -29 36 -37 -3 -3 2 -11 12 -19 15 -13 16 -12 9
6 -5 15 -4 17 5 8 9 -9 4 -22 -21 -57 -19 -25 -41 -46 -49 -46 -14 0 -14 -2
-1 -10 12 -8 12 -10 -5 -10 -17 0 -17 -2 -5 -10 12 -8 12 -10 -5 -11 -11 0
-15 -3 -8 -5 7 -3 10 -18 6 -40 -3 -19 -1 -40 6 -47 6 -8 7 -17 3 -21 -4 -4
-2 -7 3 -5 6 1 27 -1 47 -5 22 -5 50 -4 69 3 29 10 30 9 18 -6 -11 -13 -8 -13
13 2 28 20 38 41 16 32 -9 -3 -13 9 -13 42 0 25 -4 67 -8 94 -5 31 -5 47 2 47
6 0 8 -6 5 -14 -3 -8 -1 -23 4 -32 8 -14 9 -11 7 16 -1 22 -9 37 -21 42 -15 7
-13 7 6 3 14 -2 35 -5 47 -5 18 0 21 -5 17 -32 l-4 -33 14 30 c21 44 19 27 -5
-40 -27 -75 -29 -176 -5 -172 6 1 10 -3 9 -10 -1 -6 5 -17 15 -25 15 -11 16
-11 4 3 -12 16 7 17 120 5 15 -1 25 1 22 6 -3 4 2 8 11 8 10 0 13 -5 9 -12 -4
-8 -3 -10 2 -5 5 5 9 14 9 20 0 7 6 13 13 13 6 1 17 2 23 3 5 0 7 6 4 11 -4 6
-9 8 -13 6 -4 -2 -5 16 -3 41 2 25 -4 63 -13 86 -9 23 -15 46 -15 51 0 5 -5
13 -13 18 -9 7 -5 8 12 4 14 -3 43 -6 65 -6 26 0 35 -3 27 -9 -8 -4 -13 -12
-13 -17 1 -5 -3 -31 -9 -57 -15 -69 -13 -132 5 -147 10 -8 43 -11 104 -9 51 3
87 0 84 -5 -4 -5 -1 -6 6 -2 7 5 10 10 7 13 -3 3 -1 14 5 24 6 13 5 41 -6 91
-9 43 -11 74 -5 78 13 8 -1 27 -25 32 -11 3 15 7 57 9 74 4 76 3 60 -14 -9
-11 -18 -14 -20 -8 -2 6 -11 11 -20 10 -11 0 -12 -2 -4 -6 6 -2 10 -9 6 -14
-3 -5 -1 -9 5 -9 6 0 8 -12 5 -27 -17 -93 -20 -162 -7 -168 8 -2 12 -1 8 4 -3
5 8 4 24 -2 17 -6 28 -14 25 -18 -2 -4 1 -11 7 -15 8 -4 9 -3 5 4 -7 12 1 13
114 16 14 1 25 6 25 13 0 6 3 15 8 19 12 13 8 66 -12 137 -20 74 -19 84 4 35
14 -30 15 -23 4 22 -2 8 -15 18 -29 21 -15 4 0 7 40 8 36 1 76 4 90 6 22 5 21
4 -4 -6 -21 -8 -25 -14 -15 -20 7 -4 19 -3 25 2 9 8 10 1 3 -28 -12 -52 -9
-169 5 -171 6 -1 26 -5 44 -8 18 -4 54 0 80 7 26 7 51 14 56 14 12 0 19 29 20
85 1 25 4 47 8 50 4 3 3 12 -2 20 -9 13 -10 13 -10 0 -1 -9 -6 -5 -15 10 -9
16 -10 29 -4 37 7 7 6 14 -2 19 -8 5 -9 3 -4 -6 5 -9 4 -11 -3 -6 -7 4 -12 16
-12 27 0 11 4 17 10 14 6 -3 7 1 4 9 -3 9 -11 13 -18 9 -6 -3 0 6 13 20 26 29
37 35 25 15 -4 -7 7 0 24 16 18 16 29 32 26 35 -3 3 -12 -3 -20 -13 -8 -11
-14 -15 -14 -10 0 16 106 115 114 107 4 -5 6 -1 4 7 -2 8 2 14 9 15 13 0 42
34 43 50 0 6 -9 -3 -20 -20 -27 -41 -25 -30 5 29 14 27 25 61 26 75 1 35 27
103 29 76 l1 -20 9 20 c4 11 4 24 -1 29 -12 14 26 61 65 80 40 19 60 21 50 4
-4 -7 -3 -8 5 -4 6 4 9 12 6 17 -7 10 28 12 74 3 17 -4 28 -10 26 -15 -3 -4 0
-11 6 -15 8 -4 9 -3 5 4 -8 13 -1 14 31 6 13 -4 21 -10 18 -14 -3 -5 0 -12 6
-16 8 -5 9 -3 4 6 -6 10 -2 11 19 6 91 -23 178 -14 220 22 11 10 16 11 12 5
-4 -7 -3 -13 3 -13 16 0 73 79 65 91 -4 8 -3 9 4 5 6 -4 16 4 23 16 11 20 10
22 -3 10 -12 -9 -9 5 10 50 20 48 26 81 26 138 1 41 6 78 11 82 6 5 3 8 -7 8
-10 0 -22 10 -28 23 -11 21 -10 21 4 3 9 -11 16 -15 16 -9 0 5 -10 18 -22 29
-12 10 -18 13 -14 7 9 -16 4 -16 -28 -2 -14 7 -23 15 -21 20 3 4 0 11 -6 15
-8 4 -9 3 -5 -4 8 -13 -4 -15 -28 -6 -9 3 -13 10 -10 15 3 5 -1 6 -8 4 -7 -3
-29 8 -48 24 -19 17 -29 30 -22 31 10 0 10 5 2 20 -6 11 -15 18 -21 15 -5 -4
-10 -5 -10 -3 -1 2 -5 95 -9 208 -6 176 -10 213 -28 260 -23 58 -31 109 -12
80 8 -13 10 -12 10 3 0 9 -6 17 -12 17 -7 0 -4 7 7 16 26 19 57 14 63 -11 2
-11 5 -130 6 -265 1 -209 4 -250 18 -276 10 -17 14 -35 10 -39 -4 -5 -2 -5 5
-1 6 3 15 2 18 -4 10 -16 94 -9 108 9 11 14 10 14 -8 1 -19 -14 -19 -14 -6 3
7 9 21 17 30 17 14 0 14 2 1 10 -12 7 -11 10 5 16 27 10 37 27 22 36 -8 5 -7
8 4 8 9 0 20 7 23 16 5 14 4 15 -9 4 -11 -9 -8 6 10 57 40 115 64 222 70 307
4 45 8 98 10 119 8 65 -14 238 -42 337 -14 52 -27 107 -27 122 -1 14 -4 24 -7
22 -9 -5 -84 258 -81 286 2 17 0 21 -6 12 -6 -9 -11 -6 -20 12 -8 19 -8 26 1
30 7 2 4 5 -7 5 -12 1 -16 6 -12 17 3 8 2 13 -3 10 -9 -6 -24 30 -22 52 1 7
-5 15 -14 19 -13 5 -14 7 -3 14 10 7 10 9 -2 9 -8 0 -21 9 -28 20 -8 13 -8 20
-1 20 5 0 7 5 4 10 -4 6 -10 8 -15 5 -5 -3 -11 -1 -15 5 -3 5 0 10 7 11 7 0 3
4 -10 10 -13 5 -21 13 -17 19 3 5 1 18 -5 27 -10 16 -11 16 -5 -2 4 -14 -1
-11 -19 10 -13 17 -22 32 -20 35 3 2 9 -2 14 -10 6 -8 10 -10 9 -5 0 6 -16 28
-35 50 -33 36 -38 33 -10 -5 6 -8 -12 10 -41 40 -29 30 -52 60 -52 65 0 6 13
-6 30 -25 17 -19 26 -26 20 -15 -12 25 -131 143 -131 130 0 -5 12 -20 28 -33
l27 -24 -30 20 c-33 22 -101 91 -97 98 6 11 1 17 -6 6 -6 -9 -13 -7 -28 10
-19 22 -19 23 1 8 20 -15 20 -14 1 8 -20 23 -32 30 -20 11 4 -7 1 -10 -7 -7
-8 3 -13 10 -12 15 1 5 -3 10 -10 10 -7 0 -38 17 -70 37 -124 80 -279 134
-460 160 -97 15 -471 20 -577 9z m-881 -810 c-30 -80 -59 -234 -60 -323 -2
-113 -10 -156 -29 -152 -11 3 -11 0 1 -14 12 -15 12 -17 0 -9 -11 6 -13 4 -8
-9 5 -11 3 -15 -5 -10 -8 5 -9 2 -5 -9 4 -12 1 -17 -11 -17 -15 0 -15 -2 -2
-11 12 -8 10 -10 -10 -5 -24 5 -24 4 -6 -9 17 -13 18 -15 3 -15 -9 0 -17 -6
-17 -12 0 -8 -4 -7 -10 3 -7 12 -2 38 15 87 14 39 34 129 45 199 26 164 41
232 53 240 5 3 7 -3 4 -13 -15 -47 -15 -74 -1 -30 13 40 14 50 2 57 -12 8 -4
13 16 10 5 -1 4 5 -4 13 -11 15 -7 20 13 17 4 0 7 4 7 9 0 6 -4 10 -10 10 -6
0 -5 10 2 25 16 36 32 7 17 -32z m409 -843 c127 -11 173 -20 167 -30 -3 -5 0
-12 6 -16 8 -4 9 -3 5 4 -8 13 7 15 41 6 13 -4 20 -11 16 -17 -3 -6 -1 -7 5
-3 6 4 28 -2 49 -13 45 -23 99 -76 85 -85 -10 -6 -4 -53 7 -61 4 -2 6 10 4 28
-2 28 -1 26 8 -8 11 -41 7 -175 -6 -208 -6 -15 -10 -16 -16 -5 -6 9 -9 9 -9 1
0 -6 5 -15 10 -18 6 -4 8 -11 4 -16 -3 -5 -11 -6 -17 -2 -7 4 -6 -1 2 -11 8
-9 10 -16 5 -15 -20 3 -28 -2 -15 -10 11 -7 1 -24 -49 -75 -35 -36 -65 -64
-67 -62 -2 2 18 25 46 51 28 26 51 51 51 54 0 4 -25 -17 -55 -46 -30 -29 -55
-57 -55 -61 0 -5 -11 -19 -25 -32 -14 -13 -25 -18 -25 -11 0 7 -5 9 -10 6 -6
-4 -8 -10 -5 -15 12 -20 -176 -130 -223 -130 -39 0 -73 11 -66 21 3 5 -1 6 -9
4 -16 -7 -67 31 -67 49 0 16 -34 48 -42 40 -3 -3 -15 8 -27 25 -15 21 -18 31
-9 34 7 3 4 6 -7 6 -17 1 -17 3 -5 11 13 8 13 10 -2 10 -12 0 -15 6 -11 23 3
15 2 18 -4 9 -28 -39 -71 370 -44 414 10 16 11 15 6 -11 l-5 -30 11 30 c9 21
9 30 1 33 -15 5 -3 32 14 32 8 0 14 5 14 11 0 5 -6 7 -12 3 -9 -5 -9 -3 1 9 7
9 17 14 22 11 5 -3 8 0 7 7 -4 18 52 48 113 58 72 12 69 12 187 1z m1441 -16
c17 -4 28 -10 26 -15 -3 -4 0 -11 6 -15 8 -5 9 -3 4 6 -22 35 123 -36 157 -77
10 -13 7 -13 -17 2 l-30 19 24 -27 c13 -14 27 -24 31 -22 38 24 51 -162 25
-348 -10 -67 -22 -126 -26 -131 -4 -5 -6 2 -3 15 4 21 3 22 -5 4 -5 -12 -5
-25 1 -32 8 -9 6 -13 -5 -13 -8 0 -18 -7 -21 -16 -6 -15 -4 -15 11 -3 14 11
13 8 -2 -10 -35 -41 -92 -61 -180 -61 -68 0 -89 4 -143 30 -34 16 -61 34 -60
41 2 6 -3 14 -11 17 -9 3 -11 0 -6 -8 5 -7 -13 2 -40 20 -26 18 -50 41 -52 51
-3 10 -17 25 -32 34 l-26 16 23 -20 c12 -10 22 -23 22 -27 0 -4 -13 5 -30 21
-16 15 -27 33 -23 38 3 6 2 7 -4 4 -5 -4 -23 8 -39 26 l-29 32 29 -25 29 -25
-19 27 c-10 15 -24 28 -31 28 -17 0 -51 52 -45 69 3 8 0 11 -7 7 -7 -5 -9 -1
-4 10 5 13 3 15 -8 9 -11 -7 -12 -6 -2 6 8 10 9 19 1 29 -8 12 -8 11 -3 -5 4
-13 3 -17 -4 -10 -10 10 -15 60 -12 128 1 28 5 37 19 38 11 0 12 2 4 6 -10 4
-9 9 5 20 11 9 12 12 3 8 -8 -4 2 10 23 30 21 19 42 33 47 30 6 -3 10 -1 10 4
0 13 58 38 130 56 58 14 235 19 289 9z m-765 -507 c28 -37 33 -52 14 -41 -8 4
-10 3 -5 -2 5 -5 13 -10 18 -10 22 -3 23 -5 9 -14 -12 -8 -12 -10 5 -10 17 0
17 -2 5 -10 -13 -8 -12 -10 4 -10 11 0 16 -3 13 -7 -4 -3 1 -12 11 -19 10 -8
12 -13 5 -14 -18 0 6 -50 23 -50 19 0 37 -37 21 -43 -6 -3 -3 -6 8 -6 17 -1
17 -3 5 -11 -12 -8 -12 -10 5 -11 11 0 15 -3 8 -5 -15 -7 -5 -34 12 -34 19 0
30 -21 17 -29 -7 -4 -8 -12 -2 -21 9 -13 10 -13 10 0 1 26 38 -53 54 -117 34
-132 6 -259 -68 -304 -39 -24 -47 -24 -53 1 -3 11 -9 18 -13 15 -5 -3 -18 8
-29 24 -16 21 -18 31 -9 34 8 3 6 6 -4 6 -10 1 -18 6 -18 12 0 5 6 7 13 3 7
-4 9 -3 4 2 -5 5 -13 10 -18 10 -22 3 -23 5 -9 14 13 8 12 10 -2 10 -10 0 -18
5 -18 11 0 5 6 7 13 3 7 -4 9 -3 4 2 -5 5 -13 10 -18 10 -22 3 -23 5 -12 12 9
6 5 16 -15 38 -15 17 -22 23 -16 15 25 -36 26 -45 2 -23 -13 12 -32 22 -42 22
-11 0 -15 5 -10 13 4 7 3 9 -2 4 -5 -5 -9 -14 -9 -20 0 -7 -6 -12 -14 -12 -8
0 -16 -6 -19 -14 -3 -9 0 -11 7 -6 9 5 9 1 -1 -14 -7 -12 -18 -21 -24 -21 -17
0 -25 -28 -11 -33 17 -6 -31 -57 -54 -57 -9 0 -22 7 -29 15 -18 22 -7 153 20
235 12 36 35 123 51 195 16 71 34 134 39 139 5 5 7 -1 4 -15 -4 -21 -3 -22 5
-4 5 11 5 24 1 28 -12 14 0 46 16 40 8 -3 14 -1 14 5 0 6 -6 13 -12 15 -8 4
-7 6 3 6 9 1 20 8 23 17 6 15 4 15 -11 3 -15 -12 -16 -12 -8 1 12 23 47 60 56
60 4 0 19 -15 33 -33z"/>
<path d="M44 6163 c5 -9 -1 -13 -18 -13 l-26 0 2 -237 c1 -131 4 -227 6 -213
3 17 14 -7 36 -80 24 -78 30 -109 22 -119 -8 -11 -8 -13 2 -7 18 11 58 -84 40
-96 -10 -6 -9 -8 3 -8 22 0 55 -70 37 -81 -9 -6 -7 -9 7 -9 17 0 17 -2 5 -10
-12 -8 -12 -10 5 -10 17 0 17 -2 5 -10 -12 -8 -12 -10 5 -10 17 0 17 -2 5 -10
-12 -8 -12 -10 5 -10 17 0 17 -2 5 -10 -12 -8 -12 -10 5 -10 17 0 17 -2 5 -10
-12 -8 -12 -10 5 -10 17 0 17 -2 5 -10 -12 -8 -12 -10 5 -10 17 0 17 -2 5 -10
-12 -8 -12 -10 5 -10 17 0 17 -2 5 -10 -12 -8 -12 -10 5 -10 17 0 17 -2 5 -10
-12 -8 -12 -10 5 -10 17 0 17 -2 5 -10 -13 -8 -13 -10 2 -10 22 0 53 -56 35
-63 -6 -3 -3 -6 8 -6 17 -1 17 -3 5 -11 -13 -8 -13 -10 2 -10 22 0 43 -36 25
-43 -6 -3 -3 -6 8 -6 17 -1 17 -3 5 -11 -13 -8 -13 -10 2 -10 10 0 25 -15 33
-32 14 -29 14 -31 0 -14 -8 11 -15 24 -15 30 0 5 -2 7 -5 4 -9 -9 17 -58 31
-58 6 0 33 -33 58 -74 47 -76 54 -92 34 -80 -7 4 -8 3 -4 -5 4 -6 11 -9 16 -6
5 3 11 1 15 -5 3 -5 1 -10 -6 -10 -16 0 -1 -15 14 -15 7 0 11 -8 11 -17 -1
-10 3 -16 10 -15 6 1 10 -6 8 -15 -1 -9 3 -20 9 -24 8 -5 9 -3 4 7 -8 12 -6
12 9 0 12 -10 13 -16 6 -21 -7 -5 -3 -10 12 -14 17 -4 20 -8 10 -15 -11 -6 -9
-10 7 -14 12 -3 21 -11 21 -19 0 -10 -3 -9 -11 2 -9 13 -10 13 -6 0 2 -8 8
-15 13 -15 15 0 34 -16 34 -28 0 -7 -4 -6 -11 3 -9 13 -10 13 -6 0 2 -8 9 -15
15 -15 6 0 17 -6 24 -14 10 -10 10 -12 1 -7 -7 4 -13 2 -13 -3 0 -6 6 -11 14
-11 7 0 19 -7 26 -15 9 -11 9 -15 1 -15 -7 0 -9 -5 -6 -10 4 -6 10 -8 15 -5
12 7 51 -45 43 -58 -3 -5 -1 -7 5 -3 6 3 13 2 17 -4 3 -5 1 -10 -5 -10 -6 0
-8 -5 -5 -11 4 -6 10 -8 13 -5 7 8 32 -14 32 -28 0 -6 -5 -4 -11 4 -9 13 -10
13 -6 0 2 -8 9 -14 14 -13 6 1 21 -10 34 -25 l24 -27 -24 20 -24 20 18 -28
c10 -15 20 -25 23 -22 9 8 32 -17 25 -28 -3 -5 -1 -7 5 -3 6 3 13 2 17 -4 3
-5 1 -10 -5 -10 -6 0 -8 -5 -5 -10 4 -6 10 -8 14 -6 4 3 21 -8 36 -24 16 -17
25 -30 21 -30 -4 0 -17 10 -28 23 -17 19 -17 18 2 -10 21 -33 51 -59 35 -32
-4 8 8 -2 28 -20 43 -40 50 -57 10 -20 -25 22 -24 20 5 -17 17 -22 39 -47 49
-55 10 -7 7 0 -7 16 -13 17 3 3 38 -30 57 -55 83 -85 47 -55 -23 19 -18 -4 5
-25 11 -10 20 -14 20 -10 0 4 9 0 20 -10 11 -10 18 -21 15 -25 -2 -4 12 -22
33 -41 l37 -34 -35 40 c-19 22 20 -14 87 -79 67 -66 121 -124 120 -128 -1 -5
18 -25 43 -45 l45 -36 -37 36 c-21 19 -38 39 -38 43 0 5 20 -11 44 -35 25 -24
44 -49 43 -55 -1 -5 3 -10 8 -11 17 -1 36 -16 30 -25 -3 -4 2 -13 10 -20 13
-11 14 -10 9 6 -4 11 12 1 39 -25 25 -24 44 -48 41 -52 -2 -4 0 -10 6 -14 5
-3 10 -1 10 4 0 6 70 -48 155 -120 85 -73 152 -135 150 -140 -3 -4 -1 -10 5
-14 5 -3 10 -1 10 5 0 6 5 8 10 5 6 -4 8 -11 4 -16 -3 -5 0 -8 7 -7 7 2 13 -2
14 -9 0 -6 4 -15 9 -20 5 -5 6 -2 1 6 -5 9 -3 12 6 9 8 -3 13 -11 12 -17 -2
-6 2 -10 9 -8 7 1 12 -3 13 -10 0 -6 4 -15 9 -20 5 -5 6 -2 1 6 -5 9 -3 12 6
9 8 -3 13 -11 12 -17 -2 -6 2 -10 9 -8 7 1 12 -3 13 -10 0 -16 15 -29 15 -14
0 7 5 9 10 6 6 -4 7 -12 4 -18 -4 -7 -4 -9 1 -5 11 10 47 -11 40 -23 -4 -5 -1
-8 6 -7 7 2 13 -2 14 -9 0 -15 15 -30 15 -14 0 6 25 -7 55 -30 30 -23 55 -44
55 -46 0 -3 -7 0 -15 7 -9 7 -17 11 -19 9 -2 -2 8 -13 22 -23 14 -11 22 -14
17 -6 -5 8 -3 11 6 8 8 -3 13 -11 11 -17 -1 -7 1 -10 6 -7 12 7 87 -49 87 -65
0 -7 6 -14 14 -17 10 -3 11 0 5 9 -4 8 14 -3 41 -23 28 -19 111 -77 185 -127
74 -51 135 -97 135 -103 0 -6 7 -13 15 -15 13 -4 13 -3 0 6 -8 6 -12 11 -8 11
4 0 83 -47 175 -104 160 -98 472 -277 547 -313 19 -9 33 -20 30 -25 -3 -4 1
-5 8 -3 8 3 22 -2 33 -11 11 -8 13 -12 5 -8 -13 7 -13 5 -1 -9 15 -18 26 -23
16 -7 -3 5 -4 10 -2 10 19 0 346 -168 340 -175 -4 -4 -3 -5 4 -2 14 9 175 -68
165 -78 -4 -5 -2 -5 5 -2 6 4 91 -29 188 -73 97 -44 181 -80 186 -80 6 0 7 -5
3 -12 -4 -6 -3 -8 3 -5 15 9 75 -17 66 -28 -5 -4 -3 -5 3 -2 16 9 77 -17 67
-28 -5 -4 -3 -5 3 -2 14 8 95 -23 89 -34 -3 -4 0 -11 6 -15 8 -5 9 -3 4 6 -10
17 -7 16 177 -56 81 -32 145 -61 142 -65 -2 -4 1 -11 7 -15 8 -4 9 -3 5 4 -10
17 -1 15 96 -19 48 -18 85 -35 83 -40 -3 -4 0 -11 6 -15 8 -4 9 -3 5 4 -4 7
-4 12 1 12 22 0 400 -136 402 -145 2 -5 5 -12 8 -15 4 -3 3 1 -1 8 -4 6 -4 12
-1 12 4 0 105 -31 224 -69 245 -79 549 -171 564 -171 11 0 5 211 -7 245 -5 14
-3 13 9 -5 12 -18 14 -19 10 -5 -4 11 -10 28 -12 37 -3 10 -12 18 -20 18 -9 0
-13 6 -9 15 3 8 0 14 -6 12 -7 -1 -12 5 -13 13 0 8 -7 15 -15 15 -8 1 -14 7
-12 14 1 7 -1 10 -5 8 -12 -8 -84 38 -75 48 4 4 2 5 -4 2 -6 -3 -33 3 -60 14
-27 11 -39 18 -26 15 13 -2 20 0 16 6 -3 5 -16 7 -28 4 -25 -6 -128 29 -106
36 8 3 5 4 -6 2 -23 -4 -88 19 -82 29 2 3 -1 9 -6 14 -5 5 -6 3 -2 -5 4 -7 2
-12 -6 -11 -19 1 -115 37 -101 38 6 1 24 -4 40 -10 22 -8 26 -8 16 2 -7 7 -30
13 -50 14 -43 1 -304 85 -297 96 2 4 -6 5 -18 1 -13 -3 -19 -1 -15 5 5 7 -1 9
-15 5 -16 -4 -19 -2 -13 8 5 9 4 11 -4 6 -15 -10 -391 115 -384 128 3 5 1 6
-4 3 -15 -9 -116 27 -106 37 4 5 3 6 -4 2 -17 -9 -304 104 -296 117 3 6 1 7
-4 4 -15 -9 -163 54 -156 66 3 6 1 7 -4 4 -15 -9 -116 37 -106 47 4 5 2 6 -4
2 -24 -14 -950 465 -938 484 3 5 0 12 -6 16 -8 4 -9 3 -5 -4 9 -15 1 -15 -25
-1 -11 5 -17 14 -14 19 3 5 -3 8 -12 8 -23 -2 -135 61 -128 72 3 5 0 12 -6 16
-8 4 -9 3 -5 -4 12 -19 -3 -14 -65 24 -33 19 -57 39 -54 44 3 5 0 12 -6 16 -8
4 -9 3 -5 -4 9 -15 1 -15 -25 -1 -11 5 -17 14 -14 19 3 5 0 12 -6 16 -8 4 -9
3 -5 -4 12 -19 -5 -14 -56 19 -26 17 -46 35 -43 39 3 5 0 12 -6 16 -8 4 -9 3
-5 -4 4 -7 4 -12 -1 -12 -17 1 -238 158 -238 168 0 7 -11 19 -25 29 l-25 17
20 -24 20 -23 -27 18 c-15 9 -25 22 -21 28 3 5 2 7 -4 4 -13 -8 -48 17 -48 34
0 7 -7 14 -15 16 -13 4 -13 3 0 -6 8 -6 11 -11 7 -11 -16 0 -127 91 -122 100
3 5 0 12 -6 16 -8 4 -9 3 -5 -4 4 -7 3 -12 -2 -12 -12 0 -53 45 -47 52 3 3
-11 17 -32 32 l-38 27 35 -30 c19 -17 30 -31 24 -31 -13 0 -86 75 -79 81 3 3
-14 20 -38 38 l-42 33 33 -32 c19 -17 32 -33 30 -35 -2 -3 -35 27 -73 65 -38
39 -64 70 -58 70 6 0 14 -6 17 -12 3 -7 2 0 -1 17 -6 29 -5 28 55 -24 34 -30
59 -57 57 -62 -3 -4 0 -11 6 -15 8 -4 9 -3 5 4 -14 23 11 12 35 -15 l24 -28
-25 20 -25 20 24 -28 c18 -20 27 -24 33 -15 7 12 12 4 9 -14 0 -5 3 -7 8 -5
14 3 112 -73 106 -83 -3 -5 0 -12 6 -16 8 -4 9 -3 5 4 -11 18 10 14 25 -5 12
-15 12 -16 -1 -8 -13 8 -13 7 -1 -8 15 -18 26 -23 16 -7 -3 6 -4 10 -1 10 6 0
227 -159 261 -188 11 -9 16 -14 11 -9 -6 4 -14 7 -19 7 -5 0 2 -9 16 -20 27
-22 42 -26 32 -10 -3 5 78 -46 182 -113 381 -251 648 -407 945 -557 108 -54
193 -102 190 -106 -4 -4 -2 -4 4 -1 13 7 207 -77 198 -85 -3 -4 1 -5 8 -4 20
2 308 -117 302 -125 -2 -4 1 -11 7 -15 8 -4 9 -3 5 4 -4 7 -4 12 -1 12 4 0
100 -34 213 -76 114 -42 434 -152 712 -245 278 -92 503 -170 500 -173 -3 -2
-1 -8 4 -13 5 -5 6 -2 1 6 -7 12 -1 13 36 5 24 -5 80 -9 124 -9 74 0 86 3 170
45 50 24 95 44 100 45 6 0 10 5 11 10 0 6 9 27 19 47 10 21 17 39 14 42 -2 2
-56 18 -119 35 -222 61 -419 124 -415 132 3 4 0 11 -6 15 -8 4 -9 3 -5 -4 8
-13 -7 -15 -41 -6 -13 4 -20 11 -16 17 3 6 1 7 -5 3 -14 -8 -183 44 -176 55 2
4 -6 5 -18 1 -13 -3 -19 -1 -15 5 5 7 -1 9 -15 5 -13 -3 -19 -1 -15 5 5 7 -1
9 -15 5 -13 -3 -19 -1 -15 5 5 7 -1 9 -15 5 -16 -4 -19 -2 -13 8 5 9 4 11 -4
6 -21 -13 -595 208 -1061 409 -124 53 -246 106 -272 117 -26 11 -45 24 -43 29
3 4 0 11 -6 15 -8 5 -9 3 -4 -6 6 -10 4 -11 -11 -6 -10 5 -27 11 -36 13 -10 3
-16 9 -13 13 3 5 0 12 -6 16 -8 4 -9 3 -5 -4 10 -17 7 -16 -83 26 -45 21 -78
42 -74 47 5 4 3 5 -4 2 -16 -10 -44 3 -36 16 3 6 1 7 -5 3 -14 -9 -422 195
-415 208 3 5 1 6 -5 2 -14 -8 -134 58 -124 69 4 4 2 5 -5 1 -14 -8 -243 120
-243 135 0 6 -4 8 -8 5 -12 -7 -187 101 -187 116 0 6 -7 13 -15 15 -13 4 -13
3 0 -6 8 -6 11 -11 7 -11 -10 0 -162 97 -317 204 -128 87 -145 101 -115 90 21
-8 21 -6 -9 16 -13 10 -17 10 -12 3 4 -7 4 -13 -1 -13 -15 1 -58 39 -58 51 0
7 -7 14 -15 16 -13 4 -13 3 0 -7 8 -6 10 -10 3 -8 -25 6 -253 180 -248 188 3
5 0 12 -6 16 -8 4 -9 3 -5 -4 4 -7 3 -12 -2 -12 -11 0 -30 21 -30 33 0 5 -4
12 -8 15 -4 4 -4 1 1 -7 5 -9 3 -12 -6 -9 -8 3 -13 11 -11 17 1 7 -1 10 -6 7
-11 -7 -78 42 -75 55 2 5 -3 8 -10 6 -6 -1 -11 3 -10 10 2 7 -7 17 -20 23 -21
11 -21 10 -3 -4 11 -9 15 -16 9 -16 -11 0 -50 39 -45 46 1 2 2 7 2 12 0 4 -4
2 -8 -5 -5 -9 -21 0 -52 28 l-45 41 45 -32 45 -32 -45 40 c-30 27 -47 37 -52
29 -7 -11 -12 -2 -9 16 0 4 -4 6 -11 5 -7 -2 -12 3 -13 9 0 7 -11 20 -25 29
l-25 16 24 -21 c13 -12 19 -21 14 -21 -5 0 -19 10 -31 23 -19 21 -22 25 -22
45 0 4 -4 1 -8 -6 -6 -9 -13 -7 -28 10 -19 22 -19 23 1 8 18 -14 19 -14 6 2
-7 10 -17 15 -22 13 -11 -7 -79 54 -79 70 0 8 -4 17 -10 20 -6 4 -7 -1 -3 -12
4 -11 -7 -5 -30 16 -20 19 -34 38 -31 42 2 4 -10 17 -28 29 -28 19 -30 19 -10
2 12 -11 22 -24 22 -28 0 -4 -13 5 -30 21 -16 15 -27 33 -23 38 3 6 1 7 -5 3
-7 -4 -16 2 -21 17 -5 13 -22 31 -38 41 l-28 17 27 -25 c16 -14 28 -28 28 -33
0 -4 -25 17 -55 47 -30 30 -55 59 -55 65 0 5 -35 41 -78 79 l-77 68 73 -71
c39 -39 72 -75 72 -79 0 -4 -97 90 -215 208 -118 118 -213 216 -211 218 2 1
27 -21 56 -50 l53 -53 -58 67 c-31 37 -61 66 -64 63 -11 -6 -96 83 -88 91 4 4
7 2 7 -4 0 -7 5 -12 12 -12 6 0 3 9 -7 20 -10 11 -21 18 -23 15 -7 -6 -62 45
-62 57 0 5 12 -4 26 -19 18 -19 16 -15 -6 15 -30 40 -50 57 -34 30 4 -7 -7 0
-24 16 -36 33 -44 50 -11 20 22 -19 22 -19 10 4 -6 12 -18 22 -25 22 -7 0 -23
11 -36 25 -13 14 -18 25 -11 25 7 0 9 5 6 11 -4 6 -10 8 -13 5 -7 -7 -52 34
-52 47 0 5 9 -1 21 -14 l20 -24 -17 28 c-9 15 -22 27 -28 27 -7 0 -23 12 -37
28 l-24 27 29 -25 29 -25 -18 28 c-9 15 -23 27 -30 27 -13 0 -45 31 -45 44 0
5 9 -2 21 -15 l20 -24 -17 27 c-9 15 -20 26 -24 23 -4 -2 -18 8 -31 23 l-24
27 24 -20 24 -20 -12 23 c-6 12 -18 22 -25 22 -14 0 -46 31 -46 44 0 5 9 -2
21 -15 l20 -24 -17 27 c-9 15 -20 26 -24 23 -4 -2 -16 5 -26 18 -19 21 -19 21
0 7 18 -14 19 -14 7 7 -6 13 -17 22 -24 20 -7 -1 -11 4 -9 11 1 8 -2 11 -7 8
-5 -4 -12 -2 -16 4 -3 5 -1 10 5 10 6 0 8 5 5 10 -4 6 -10 8 -15 5 -8 -5 -140
155 -140 171 0 4 7 -1 16 -12 14 -18 15 -18 4 4 -6 12 -17 22 -24 22 -8 0 -26
16 -40 35 -15 19 -23 35 -19 35 5 0 17 -14 27 -31 10 -17 20 -28 23 -25 7 7
-39 66 -53 66 -6 0 -17 7 -24 15 -9 10 -9 15 -1 15 6 0 11 -5 11 -12 0 -6 3
-8 6 -5 9 8 -16 38 -26 32 -12 -8 -33 23 -24 36 4 7 3 9 -4 5 -6 -3 -13 -2
-17 4 -3 5 -1 10 5 10 6 0 8 5 5 10 -4 6 -10 8 -15 5 -5 -3 -12 0 -16 6 -4 8
-3 9 4 5 18 -11 15 0 -10 39 -13 19 -32 37 -43 40 -13 4 -16 8 -7 12 9 3 8 12
-5 34 -10 16 -22 29 -28 29 -14 0 -46 55 -37 64 4 4 0 6 -8 4 -8 -1 -14 2 -15
9 0 7 -6 18 -14 25 -10 10 -12 10 -7 1z"/>
<path d="M9545 6150 c5 -9 -23 -35 -46 -43 -9 -3 -21 -19 -27 -37 -8 -20 -8
-29 -1 -24 6 3 5 -3 -3 -15 -7 -12 -18 -21 -25 -21 -7 0 -13 -5 -13 -11 0 -5
5 -7 11 -3 6 3 -1 -12 -16 -35 -30 -44 -38 -51 -28 -23 3 9 -9 -2 -27 -26 -18
-24 -30 -46 -27 -49 4 -3 12 6 18 21 7 14 16 26 21 26 5 0 0 -14 -12 -30 -12
-17 -25 -28 -30 -25 -10 6 -35 -23 -26 -32 3 -3 6 -1 6 5 0 7 5 12 11 12 8 0
8 -5 -1 -15 -7 -8 -18 -15 -24 -15 -11 0 -68 -70 -89 -110 -13 -24 42 42 61
73 9 15 20 27 25 27 4 0 -13 -27 -38 -60 -25 -33 -53 -60 -61 -60 -8 0 -14 -5
-14 -11 0 -6 6 -7 13 -2 6 4 -3 -12 -21 -35 -19 -23 -38 -40 -42 -37 -5 3 -14
-5 -21 -17 -12 -22 -11 -22 7 -8 19 14 19 14 0 -7 -10 -13 -22 -20 -27 -17 -4
2 -13 -6 -20 -18 -12 -22 -11 -22 7 -8 19 14 19 14 0 -7 -10 -13 -22 -20 -27
-17 -4 2 -13 -6 -20 -18 -12 -22 -11 -22 7 -8 19 14 19 14 0 -7 -10 -13 -22
-20 -27 -18 -4 3 -10 1 -14 -5 -3 -5 -1 -10 6 -10 7 0 5 -8 -6 -20 -10 -11
-24 -20 -30 -20 -7 0 -21 -12 -30 -27 l-18 -28 29 25 c15 14 6 -1 -20 -32 -27
-32 -52 -56 -56 -53 -4 3 -15 -8 -24 -23 l-17 -27 20 24 c12 13 21 19 21 14 0
-11 -48 -58 -58 -57 -4 0 -16 -11 -26 -25 l-20 -26 30 25 29 25 -24 -27 c-14
-16 -30 -28 -37 -28 -6 0 -19 -12 -28 -27 l-17 -28 20 24 c12 13 21 19 21 14
0 -13 -43 -52 -54 -50 -5 1 -16 -9 -24 -23 l-16 -25 24 20 c20 16 20 14 -4
-12 -16 -18 -32 -30 -36 -28 -4 3 -20 -12 -35 -33 -26 -36 -26 -36 -1 -9 14
15 28 27 32 27 5 0 -7 -16 -26 -35 -18 -19 -36 -32 -40 -30 -4 3 -24 -17 -45
-43 l-37 -47 36 37 c20 21 36 34 36 30 0 -4 -23 -30 -51 -57 -29 -28 -49 -44
-45 -37 15 26 -2 10 -63 -60 l-63 -73 57 58 c31 31 60 57 63 57 4 0 -87 -94
-203 -210 -115 -115 -211 -208 -212 -206 -2 2 25 32 59 66 l63 63 -70 -63
c-38 -34 -70 -66 -70 -70 0 -12 -15 -25 -28 -25 -7 -1 -11 -6 -10 -12 3 -12
-94 -104 -105 -100 -11 3 -72 -46 -72 -58 0 -6 -13 -24 -30 -40 -18 -17 -30
-23 -30 -15 0 7 -3 10 -7 6 -5 -4 -8 -13 -8 -19 0 -15 -194 -179 -205 -172 -5
3 -12 0 -16 -6 -5 -8 -2 -10 7 -5 8 5 -4 -8 -26 -28 -22 -19 -44 -35 -49 -36
-4 0 2 9 15 21 l24 21 -25 -16 c-14 -9 -25 -22 -25 -29 -1 -6 -6 -11 -13 -9
-7 1 -11 -3 -10 -9 2 -6 -3 -14 -11 -17 -9 -3 -11 0 -6 8 5 9 4 11 -4 6 -6 -4
-9 -11 -6 -16 5 -8 -66 -70 -81 -70 -4 0 1 7 12 16 18 14 18 15 -4 4 -12 -6
-20 -15 -17 -20 7 -12 -45 -51 -58 -43 -5 3 -7 2 -4 -4 6 -9 -152 -133 -169
-133 -5 0 -2 5 6 11 13 9 13 10 0 6 -8 -2 -14 -9 -13 -15 3 -13 -96 -87 -104
-78 -4 3 -2 6 3 6 5 0 20 10 34 21 l25 21 -35 -21 c-19 -11 -35 -26 -35 -32 0
-7 -63 -55 -139 -108 -77 -52 -136 -90 -132 -83 5 8 2 10 -8 6 -9 -3 -13 -10
-10 -15 5 -9 -185 -139 -202 -139 -5 0 -2 5 6 11 13 9 13 10 0 6 -8 -2 -15 -9
-15 -15 0 -15 -56 -53 -67 -46 -4 3 -8 1 -8 -5 0 -12 -167 -114 -187 -114 -7
0 -13 -4 -13 -8 0 -12 -128 -81 -139 -75 -5 4 -13 1 -17 -5 -4 -8 -3 -9 4 -5
7 4 12 5 12 2 0 -4 -89 -56 -97 -56 -2 0 -1 5 3 12 5 7 3 8 -5 4 -7 -5 -10
-11 -7 -14 9 -9 -134 -83 -146 -76 -6 4 -8 3 -5 -3 6 -10 -229 -130 -245 -125
-5 1 -6 -3 -2 -9 5 -9 2 -10 -12 -5 -10 4 -15 4 -12 0 10 -9 -192 -105 -204
-98 -6 4 -8 2 -5 -3 4 -6 0 -14 -9 -17 -22 -9 -26 -8 -18 6 5 7 3 8 -5 4 -7
-5 -10 -11 -6 -14 9 -9 -136 -73 -149 -65 -6 3 -8 2 -3 -2 7 -9 -241 -125
-268 -125 -8 0 -15 -4 -15 -10 0 -5 7 -10 16 -10 8 0 77 -29 152 -64 75 -35
160 -73 188 -85 l51 -22 182 90 c99 50 183 91 186 91 4 0 4 -4 0 -9 -3 -5 -1
-12 4 -15 4 -3 8 3 7 14 -1 15 30 37 129 93 116 67 131 73 142 58 11 -14 11
-14 7 4 -4 18 16 34 133 105 76 46 188 116 248 155 61 39 117 75 125 79 27 16
-3 -10 -45 -38 -52 -34 -38 -34 20 1 25 16 45 33 45 39 0 5 48 43 108 84 59
40 144 100 189 132 82 59 100 68 87 46 -5 -9 -2 -9 9 1 18 15 23 26 7 16 -5
-3 -10 -4 -10 -2 0 3 34 30 75 61 41 31 75 51 75 45 0 -16 15 -1 15 14 1 7 6
11 13 10 7 -2 11 2 9 8 -1 6 4 14 12 17 9 3 11 0 6 -9 -5 -8 -4 -11 1 -6 5 5
9 14 9 20 1 7 7 11 14 9 7 -1 10 2 7 7 -4 5 -2 12 4 16 5 3 10 1 10 -6 0 -15
15 -2 15 14 1 7 7 11 14 9 7 -1 10 2 7 7 -4 5 -2 12 4 16 5 3 10 1 10 -5 0 -6
5 -8 10 -5 6 4 8 10 5 14 -2 5 7 19 20 31 21 20 25 21 25 7 0 -9 5 -17 11 -17
5 0 7 -5 3 -11 -5 -8 -9 -8 -14 1 -6 9 -9 9 -15 0 -4 -6 -4 -14 -1 -17 7 -8
-46 -49 -59 -45 -5 2 -7 0 -2 -4 8 -9 -51 -74 -67 -74 -6 0 5 14 24 31 l35 30
-38 -27 c-21 -15 -35 -29 -32 -32 7 -7 -36 -52 -49 -52 -6 0 0 10 14 21 l25
21 -25 -15 c-14 -8 -24 -20 -23 -26 4 -14 -97 -92 -110 -84 -6 3 -7 1 -3 -5 8
-13 -28 -35 -39 -24 -3 4 -5 2 -3 -5 4 -16 -91 -85 -105 -76 -6 3 -7 1 -4 -4
4 -6 -25 -31 -63 -57 -39 -25 -70 -43 -70 -39 0 4 -7 -2 -15 -13 -8 -10 -15
-16 -15 -12 0 4 -12 -4 -26 -17 -28 -26 -51 -34 -38 -13 4 7 3 8 -5 4 -6 -4
-9 -11 -6 -16 3 -4 -17 -22 -43 -39 -51 -33 -68 -38 -56 -19 4 7 3 8 -5 4 -6
-4 -9 -11 -6 -16 7 -11 -283 -184 -306 -183 -10 1 -18 -3 -16 -8 3 -17 -617
-352 -711 -385 l-35 -11 109 -43 c60 -23 170 -62 244 -87 l135 -46 195 103
c107 57 256 138 330 181 92 53 137 74 142 66 5 -8 8 -7 8 4 0 10 36 38 88 70
138 84 385 248 524 348 126 90 146 102 132 79 -4 -7 -3 -8 5 -4 6 4 9 11 6 16
-3 4 2 13 10 20 11 9 15 9 15 1 0 -7 5 -9 10 -6 6 4 8 10 5 15 -3 4 2 13 10
20 11 9 15 9 15 1 0 -7 5 -9 10 -6 6 4 8 10 5 15 -3 4 2 13 10 20 12 10 15 10
15 0 0 -16 15 -3 15 13 1 7 6 11 13 10 7 -2 11 2 9 8 -1 6 4 14 12 17 9 3 11
0 6 -8 -4 -7 6 -2 23 10 17 13 29 27 27 31 -3 4 13 21 34 38 22 18 41 26 43
20 2 -6 12 0 23 13 20 23 20 23 0 8 -20 -15 -20 -14 -1 8 12 14 22 18 26 12 4
-6 14 -2 26 12 19 22 19 23 -1 8 -20 -15 -20 -14 -1 8 12 13 22 18 26 12 4 -6
16 1 31 17 l24 28 -25 -20 -25 -20 24 28 c24 27 49 38 35 15 -4 -7 -3 -8 5 -4
6 4 9 11 6 16 -6 10 54 62 65 55 4 -3 14 3 21 13 13 16 12 16 -6 2 -20 -15
-20 -14 -1 8 15 17 22 19 28 10 7 -11 12 -5 10 13 -1 3 12 19 28 34 17 16 30
23 30 16 0 -15 89 59 90 74 0 12 80 93 80 82 0 -4 -15 -21 -32 -38 l-33 -31
42 33 c23 17 40 35 38 40 -6 8 13 23 30 24 6 1 9 6 8 11 -1 6 19 31 45 55 25
24 39 35 29 23 -23 -28 -22 -41 3 -19 11 10 20 23 20 30 0 14 34 47 41 40 3
-2 25 17 50 43 l44 47 -50 -45 c-27 -25 4 10 69 77 66 67 123 120 127 118 4
-3 23 17 44 43 l37 47 -36 -37 c-20 -21 -36 -34 -36 -30 0 4 26 32 57 62 32
30 49 44 38 30 l-20 -25 28 25 c16 14 34 34 39 45 11 20 11 20 -13 0 l-24 -20
24 27 c13 15 28 25 34 21 6 -3 7 -1 4 4 -4 6 1 17 10 24 14 12 16 12 8 0 -17
-28 14 0 35 32 19 28 19 29 2 10 -11 -13 -24 -23 -28 -23 -4 0 5 13 21 30 15
16 31 27 35 25 4 -3 16 8 25 23 l18 27 -24 -20 -24 -20 24 27 c13 15 27 26 30
25 8 -2 71 67 71 78 0 5 -16 -9 -36 -31 l-36 -39 37 47 c20 26 42 46 47 45 6
-1 13 4 16 12 3 9 0 11 -9 6 -8 -5 -6 1 5 13 10 12 23 20 28 19 6 -1 13 4 16
12 3 9 0 11 -9 6 -12 -7 -12 -5 -1 6 7 8 18 14 24 14 6 0 13 6 16 14 3 9 0 11
-9 6 -12 -7 -12 -5 -1 6 7 8 18 14 24 14 6 0 13 7 15 15 4 13 3 13 -6 0 -7 -9
-11 -10 -11 -3 0 12 19 28 34 28 5 0 11 7 13 15 4 13 3 13 -6 0 -8 -11 -11
-11 -11 -2 0 7 10 17 23 22 12 5 16 9 9 9 -7 1 -10 6 -7 11 4 6 10 8 14 6 4
-3 8 0 8 7 0 22 35 67 52 67 14 0 14 2 1 10 -12 7 -10 11 10 19 14 5 19 10 12
10 -9 1 -8 7 4 26 9 14 20 23 24 20 5 -3 12 0 16 6 5 8 3 9 -6 4 -17 -11 -13
-2 49 98 31 51 60 87 70 87 14 0 14 2 1 10 -13 8 -12 10 3 10 9 0 17 5 17 11
0 5 -6 7 -12 4 -7 -4 -4 1 6 9 11 9 17 16 13 16 -4 0 -1 14 8 30 9 17 20 30
26 30 6 0 7 5 4 10 -3 6 2 10 12 10 15 0 16 2 3 10 -12 8 -12 10 5 10 17 0 17
2 5 10 -13 8 -13 10 1 10 9 0 20 7 23 16 6 15 4 15 -10 3 -16 -13 -16 -12 -5
9 6 12 16 22 21 22 5 0 7 7 4 15 -4 8 1 17 10 21 9 3 13 10 10 15 -3 5 3 9 13
9 15 0 16 2 3 10 -12 8 -12 10 5 10 17 0 17 2 5 10 -12 8 -12 10 5 10 17 0 17
2 5 10 -12 8 -12 10 5 10 14 0 16 3 7 8 -7 5 -10 16 -6 25 3 9 11 14 17 10 6
-3 7 -1 3 5 -7 12 20 72 38 84 6 4 7 10 4 14 -12 11 12 45 25 37 9 -5 9 -3 0
8 -14 17 10 84 27 74 5 -3 10 -1 10 4 0 6 -5 11 -11 11 -5 0 -7 5 -4 10 4 6
11 8 16 5 5 -4 9 -2 9 4 0 5 -3 11 -8 13 -4 2 2 37 14 78 16 55 23 68 26 50 2
-14 5 81 6 211 l2 237 -30 4 c-16 2 -27 1 -25 -2z m-697 -1537 c-22 -29 -47
-53 -55 -53 -8 0 -11 -5 -8 -10 10 -16 -14 -39 -36 -35 -13 3 -19 0 -16 -8 3
-7 11 -11 18 -9 9 2 7 -3 -5 -17 -10 -11 -27 -18 -39 -16 -19 3 -20 2 -5 -8
15 -10 12 -16 -23 -59 -22 -26 -46 -46 -52 -45 -7 1 -11 -4 -9 -12 2 -7 -7
-24 -19 -37 -18 -19 -25 -21 -36 -12 -11 9 -13 8 -11 -3 2 -8 -2 -13 -9 -12
-7 2 -10 -4 -6 -12 4 -13 8 -13 22 -3 9 7 1 -4 -18 -25 -19 -20 -38 -34 -42
-31 -4 2 -10 0 -14 -6 -4 -6 -10 -8 -14 -6 -4 3 -8 -4 -8 -15 -2 -17 0 -18 13
-4 9 8 18 15 22 15 3 0 -14 -20 -38 -45 -24 -24 -47 -42 -51 -40 -3 3 -12 -2
-19 -10 -7 -8 -16 -13 -20 -10 -5 3 -12 0 -16 -6 -4 -8 -3 -9 4 -5 7 4 12 1
12 -6 1 -8 6 -6 15 6 8 11 17 17 20 14 3 -3 -72 -80 -166 -172 -94 -92 -174
-165 -177 -161 -3 3 3 11 13 19 10 7 14 16 8 19 -5 3 -29 -14 -53 -38 -24 -25
-40 -45 -36 -45 5 0 3 -7 -4 -15 -7 -8 -16 -12 -21 -9 -5 3 -9 1 -9 -5 0 -6
-10 -15 -22 -22 -13 -6 69 81 181 194 113 113 209 203 214 200 6 -3 7 -2 4 4
-8 13 43 62 70 66 33 5 39 16 8 12 -25 -2 -24 0 21 46 26 26 52 47 57 46 5 -1
12 4 15 12 3 9 0 11 -9 6 -8 -4 1 8 20 28 19 20 38 35 44 34 5 -1 12 4 15 12
3 9 0 11 -9 6 -8 -5 -5 2 6 14 11 13 30 27 43 32 12 5 22 14 22 20 0 8 -5 7
-17 -2 -10 -7 -5 1 11 18 16 18 33 31 39 30 5 -1 12 4 15 12 3 9 0 11 -9 6 -8
-5 -6 1 5 13 10 12 23 20 30 19 6 -1 10 4 8 12 -4 20 17 40 39 36 13 -3 19 0
16 8 -3 7 -10 11 -17 9 -7 -1 2 15 19 37 22 27 38 39 51 36 21 -4 28 11 8 17
-20 7 2 28 26 26 23 -2 22 -4 -16 -55z"/>
<path d="M5825 4249 c-33 -5 -68 -10 -77 -11 -9 -1 -16 -7 -15 -13 1 -5 -4 -9
-11 -7 -8 1 -11 -2 -7 -8 3 -6 -4 -14 -17 -19 -13 -6 -17 -10 -10 -10 7 -1 10
-6 7 -11 -4 -6 -11 -7 -17 -4 -6 4 -8 2 -5 -3 4 -6 -1 -19 -11 -30 -9 -10 -14
-14 -9 -9 4 6 7 14 7 20 0 5 -6 1 -14 -9 -8 -11 -12 -25 -9 -32 3 -8 -2 -13
-13 -13 -15 0 -16 -2 -5 -9 11 -7 9 -13 -7 -29 -11 -11 -19 -22 -16 -24 2 -2
-6 -28 -17 -57 -25 -68 -45 -160 -69 -333 -22 -156 -38 -218 -55 -218 -17 0
-39 -50 -22 -50 19 -1 -65 -73 -121 -103 -55 -30 -56 -29 -38 31 3 9 6 40 7
67 3 43 1 50 -15 47 -10 -2 -15 1 -12 7 4 5 1 13 -5 17 -8 4 -9 3 -5 -4 4 -7
1 -12 -9 -12 -9 0 -14 4 -10 9 3 5 0 13 -6 17 -8 5 -9 3 -4 -6 6 -9 -3 -11
-38 -9 -25 2 -44 2 -41 0 3 -4 -43 -31 -53 -31 -2 0 -1 6 3 13 4 7 3 9 -2 4
-5 -5 -9 -14 -9 -20 -1 -7 -6 -11 -12 -10 -6 1 -17 -5 -25 -14 -11 -14 -11
-16 1 -8 11 6 13 4 6 -11 -5 -10 -8 -37 -7 -59 1 -29 -1 -36 -8 -25 -9 13 -10
13 -10 0 0 -8 5 -22 10 -30 9 -13 10 -13 10 0 1 14 29 -26 30 -42 0 -5 -26 -8
-57 -8 -44 1 -54 3 -40 11 9 5 17 15 17 22 0 8 -4 6 -11 -3 -8 -11 -9 -8 -4
15 4 17 11 55 15 85 6 46 8 49 10 20 3 -43 3 -40 -5 -65 -7 -18 -6 -18 9 2 12
16 15 33 10 60 -5 35 -11 41 -54 61 -26 12 -64 22 -85 22 -25 0 -34 4 -29 12
4 7 3 8 -5 4 -6 -4 -9 -12 -6 -17 5 -8 -20 -13 -61 -12 -12 0 -15 -11 -17 -69
-2 -64 7 -132 18 -140 6 -4 -16 -8 -47 -8 -32 0 -58 1 -58 3 0 1 9 29 20 61
27 75 25 152 -4 172 -11 8 -25 14 -31 14 -5 -1 2 -8 18 -16 15 -8 27 -17 27
-20 0 -2 -9 0 -19 6 -25 13 -135 13 -179 0 -31 -8 -33 -8 -21 8 10 13 8 12 -9
-2 -12 -11 -19 -22 -14 -25 8 -5 14 -49 25 -163 1 -9 4 -15 8 -12 4 2 9 -3 13
-11 4 -12 -5 -15 -50 -15 -54 0 -54 0 -48 28 4 22 3 24 -6 12 -10 -13 -11 -12
-5 5 14 41 25 121 20 144 -8 44 -30 56 -103 56 -37 0 -78 -4 -91 -9 -19 -6
-22 -5 -15 5 6 12 5 12 -9 0 -16 -13 -25 -37 -9 -28 4 3 5 -26 4 -65 -3 -63
-6 -69 -23 -65 -10 3 -17 1 -13 -4 3 -5 11 -9 19 -9 8 0 17 -4 20 -10 6 -10
-57 10 -101 33 -16 8 -38 26 -49 38 l-20 24 26 -22 c36 -32 44 -29 11 4 -15
15 -31 28 -36 28 -5 0 -16 11 -25 25 -9 13 -11 21 -5 18 6 -4 11 -1 11 7 0 8
-4 12 -8 9 -4 -2 -10 0 -14 6 -3 5 -1 10 5 10 10 0 6 50 -11 120 -6 27 -7 23
-3 -20 3 -30 8 -64 10 -75 4 -16 3 -17 -4 -5 -6 8 -15 65 -22 125 -7 61 -21
137 -31 170 -15 50 -15 57 -2 40 15 -20 15 -20 9 0 -18 63 -75 218 -75 209 -1
-6 8 -37 19 -70 11 -32 16 -54 12 -49 -5 6 -19 38 -30 71 -15 47 -17 65 -9 74
9 9 8 11 -3 8 -9 -2 -14 4 -14 14 1 10 -2 15 -8 12 -5 -3 -6 5 -3 19 5 20 2
26 -17 31 -19 5 -20 8 -8 16 13 8 13 10 -1 10 -9 0 -22 7 -29 15 -8 9 -8 15
-2 15 6 0 13 -6 15 -12 3 -8 6 -8 6 -2 1 6 -9 19 -21 30 -12 10 -18 13 -13 5
5 -9 3 -12 -6 -9 -8 3 -13 9 -12 14 1 8 -22 14 -72 17 -11 1 -33 -2 -48 -6
-22 -6 -27 -5 -21 5 4 8 3 10 -2 5 -5 -5 -9 -14 -9 -20 -1 -7 -6 -11 -13 -9
-7 1 -11 -3 -10 -10 2 -7 -3 -12 -10 -13 -13 0 -32 -23 -32 -38 0 -5 5 -5 10
-2 6 4 10 -8 10 -29 0 -19 3 -42 7 -52 4 -12 3 -15 -5 -10 -14 9 -15 -3 -2
-24 9 -13 10 -13 10 0 1 8 8 2 16 -14 11 -20 13 -31 5 -35 -8 -5 -6 -13 4 -27
15 -19 15 -19 9 1 -5 16 -4 17 4 5 8 -10 7 -18 0 -28 -9 -10 -8 -12 2 -10 8 2
21 -19 34 -57 18 -53 20 -86 21 -285 0 -124 4 -236 8 -250 l8 -25 -16 25 c-10
15 -14 17 -11 7 3 -10 6 -23 6 -28 0 -5 6 -9 13 -9 11 0 64 -67 79 -100 4 -9
7 -10 7 -3 1 7 28 -8 61 -34 55 -42 78 -65 48 -47 -9 5 -9 2 1 -9 16 -20 36
-23 25 -4 -5 8 -3 8 9 -2 9 -7 15 -17 12 -21 -3 -5 0 -12 6 -16 8 -4 9 -3 5 4
-4 7 -3 12 2 12 11 0 52 -44 52 -56 0 -5 25 -34 56 -64 31 -30 53 -48 49 -40
-4 8 29 -21 73 -64 45 -44 79 -83 76 -87 -2 -4 0 -10 6 -14 5 -3 10 -1 10 5 0
6 5 8 10 5 6 -4 8 -10 5 -15 -3 -5 0 -12 6 -16 8 -4 9 -3 5 5 -6 9 0 10 21 4
34 -10 162 -9 378 2 129 6 186 4 294 -10 144 -18 197 -15 253 15 20 10 39 16
44 12 4 -4 4 -2 1 4 -4 7 1 18 10 25 15 12 16 12 10 -5 -6 -16 -5 -17 8 -6 8
7 12 17 8 23 -3 5 -1 7 5 3 6 -3 20 8 32 26 19 28 19 30 2 11 -11 -13 -24 -23
-28 -23 -4 0 5 13 21 30 15 16 32 27 36 24 4 -2 13 6 19 18 11 22 10 22 -4 4
-9 -11 -16 -15 -16 -9 0 13 35 45 43 37 3 -3 10 5 17 18 11 22 10 22 -4 4 -9
-11 -16 -15 -16 -10 0 14 50 60 58 55 4 -2 12 6 18 18 14 28 45 61 56 61 5 0
6 -6 2 -12 -5 -9 -2 -9 9 1 20 16 23 26 5 15 -9 -5 -8 -2 1 10 11 13 16 14 22
4 8 -12 13 -4 10 14 -1 13 51 48 63 41 6 -3 8 -2 3 2 -10 11 72 95 93 95 13 0
13 1 0 10 -12 8 -12 10 5 11 11 0 15 3 9 5 -23 10 9 271 52 430 59 218 103
412 110 484 3 38 10 67 15 64 5 -3 9 -1 9 4 0 9 -34 43 -41 41 -2 -1 -31 -6
-64 -10z"/>
<path d="M2064 2162 c5 -9 -13 -12 -66 -12 -40 0 -91 -3 -112 -7 -31 -5 -37
-3 -31 7 5 9 4 11 -4 6 -6 -4 -9 -12 -6 -17 4 -5 2 -9 -4 -9 -5 0 -17 -3 -27
-7 -13 -5 -15 -3 -9 7 6 9 4 11 -4 6 -7 -5 -10 -11 -7 -14 3 -3 -8 -14 -24
-24 -36 -21 -44 -23 -34 -5 4 6 -2 3 -14 -7 -26 -23 -29 -34 -4 -15 14 12 14
10 -2 -8 -10 -12 -23 -21 -30 -20 -6 1 -10 -6 -8 -15 2 -12 -4 -18 -15 -19
-10 0 -13 -3 -6 -6 10 -3 10 -10 -1 -31 -31 -63 -37 -192 -12 -274 10 -35 11
-48 3 -49 -7 0 -3 -4 8 -9 11 -5 14 -9 7 -9 -7 -1 -10 -6 -7 -11 4 -6 10 -8
15 -5 9 5 36 -34 33 -46 -1 -4 10 -17 24 -30 14 -13 23 -18 19 -11 -9 16 -7
15 40 -7 85 -41 175 -39 240 5 28 19 34 21 24 8 -14 -17 -14 -18 2 -6 10 8 17
17 16 20 -2 21 4 32 17 32 8 0 15 1 15 3 0 1 4 17 9 35 7 24 7 31 -2 25 -7 -4
-7 0 2 10 11 14 16 15 40 3 14 -8 37 -27 51 -43 l25 -28 -31 28 c-16 15 -33
27 -36 27 -9 0 55 -64 64 -65 3 0 10 -4 15 -9 5 -5 3 -6 -4 -2 -7 4 -13 2 -13
-3 0 -6 7 -11 15 -11 20 0 39 -37 22 -43 -8 -4 -7 -6 3 -6 21 -1 44 -38 27
-44 -8 -4 -7 -6 3 -6 15 -1 57 -68 52 -83 -4 -15 38 -88 51 -88 8 0 7 -4 -3
-10 -13 -8 -12 -10 3 -10 20 0 23 -16 5 -23 -7 -3 -4 -6 7 -6 17 -1 17 -3 5
-11 -13 -8 -13 -10 1 -10 10 0 25 -20 38 -51 14 -35 16 -48 7 -40 -12 10 -13
8 -9 -8 3 -12 9 -19 13 -16 16 10 20 -13 5 -25 -12 -10 -15 -10 -15 0 0 8 -3
11 -6 7 -3 -3 -3 -11 1 -17 5 -8 11 -8 21 1 11 9 16 5 25 -17 14 -38 79 -268
119 -419 17 -66 40 -152 51 -191 11 -39 16 -80 12 -89 -4 -11 -2 -16 4 -12 5
3 19 -16 30 -44 12 -27 17 -47 12 -44 -5 4 -5 -3 0 -17 4 -13 12 -23 17 -23
16 0 114 -111 106 -120 -4 -5 -2 -5 4 -2 6 3 26 -4 45 -17 19 -13 60 -33 92
-44 95 -36 297 -29 401 14 15 6 17 4 11 -7 -5 -8 -5 -11 1 -6 5 5 9 14 9 20 0
7 8 11 17 11 10 -1 16 3 15 10 -1 6 4 10 11 8 6 -1 11 4 10 10 -2 7 3 12 10
10 6 -1 11 1 11 5 -3 21 2 33 15 33 8 0 17 7 20 16 5 14 4 15 -9 4 -14 -11
-14 -10 -5 14 13 34 13 170 1 214 -6 20 -6 32 0 32 5 0 9 5 9 11 0 5 -4 8 -9
4 -13 -8 -29 24 -24 46 3 11 0 19 -6 19 -6 0 -31 15 -57 33 -41 29 -52 32
-119 32 -70 0 -76 -2 -108 -33 -18 -18 -37 -29 -42 -25 -4 5 -6 1 -3 -7 3 -8
-2 -21 -11 -28 -9 -8 -10 -11 -3 -7 6 3 12 1 12 -4 0 -6 -5 -11 -11 -11 -5 0
-8 -4 -5 -8 14 -23 -27 -5 -51 22 l-28 31 34 -30 34 -30 -23 33 c-13 17 -29
32 -36 32 -6 0 -18 8 -25 18 -13 16 -13 16 6 2 17 -13 16 -11 -4 18 -12 17
-28 32 -34 32 -7 0 -6 4 3 10 12 8 12 10 -5 10 -17 0 -17 2 -5 10 12 8 12 10
-5 10 -16 0 -17 2 -5 10 13 8 13 11 1 22 -10 10 -12 10 -7 1 4 -7 3 -13 -2
-13 -14 0 -32 102 -44 257 -10 135 -6 233 11 233 10 0 33 51 27 58 -3 2 -10
-7 -15 -22 -6 -14 -13 -26 -16 -26 -12 0 18 55 40 72 25 20 35 45 13 32 -7 -4
-4 2 6 14 11 12 22 20 24 17 7 -7 52 35 52 48 0 6 -5 6 -13 1 -7 -5 -5 -1 5 8
18 16 16 17 -29 23 -133 17 -241 54 -227 76 4 7 3 9 -4 5 -13 -8 -44 22 -36
35 3 5 2 9 -3 8 -20 -3 -27 2 -13 11 12 8 12 10 -5 10 -17 0 -17 2 -5 10 13 8
12 10 -3 10 -10 0 -15 5 -12 10 3 6 1 10 -5 10 -6 0 -8 5 -5 10 3 6 1 10 -4
10 -6 0 -25 28 -42 62 -21 41 -26 58 -15 49 16 -14 16 -12 0 22 -10 20 -23 37
-31 37 -17 0 -38 40 -21 41 7 0 2 5 -12 10 -18 7 -21 12 -11 18 9 6 6 10 -11
15 -17 4 -20 8 -10 14 10 7 9 12 -4 23 -12 9 -15 10 -10 2 11 -19 1 -16 -15 4
-12 14 -12 16 0 9 9 -6 12 -4 9 5 -3 8 -11 14 -19 14 -8 1 -12 7 -11 15 2 8 0
12 -4 7 -10 -10 -54 33 -54 53 0 17 -30 50 -45 50 -4 0 2 -9 15 -20 13 -11 19
-20 13 -20 -15 0 -54 46 -46 54 5 4 1 6 -7 4 -8 -2 -14 2 -15 9 0 6 -4 15 -9
20 -5 5 -6 2 -1 -6 5 -9 3 -12 -6 -9 -8 3 -12 12 -11 19 2 8 0 11 -3 7 -10
-10 -47 11 -40 22 3 5 -3 9 -12 8 -24 0 -134 47 -127 55 3 3 -4 3 -17 0 -14
-4 -20 -2 -15 5 3 6 1 14 -5 18 -8 4 -9 3 -5 -4 5 -8 -2 -12 -19 -12 -14 0
-24 4 -20 9 3 5 0 13 -6 17 -8 4 -9 3 -5 -4z"/>
<path d="M7643 2163 c4 -7 -32 -12 -101 -16 -59 -3 -127 -12 -151 -21 -24 -9
-48 -13 -54 -9 -6 3 -7 1 -3 -5 4 -7 2 -12 -5 -12 -6 0 -34 -13 -61 -30 -53
-33 -63 -36 -52 -17 4 7 3 9 -2 4 -5 -5 -9 -14 -9 -20 -1 -7 -6 -11 -13 -9 -7
1 -11 -3 -10 -9 2 -6 -3 -14 -11 -17 -9 -3 -11 0 -6 8 5 9 4 11 -4 6 -6 -4 -9
-11 -7 -15 6 -9 -102 -117 -112 -113 -3 2 -8 -2 -11 -9 -2 -8 1 -9 10 -3 12 7
12 5 0 -9 -7 -9 -17 -15 -21 -12 -10 6 -35 -24 -26 -32 3 -3 6 -1 6 5 0 7 5
12 11 12 8 0 8 -5 -1 -15 -7 -8 -20 -15 -29 -15 -14 0 -14 -2 -1 -10 8 -5 12
-10 8 -11 -5 -1 -12 -3 -18 -4 -5 -1 -13 -3 -17 -4 -5 -1 -1 -6 7 -11 13 -8
12 -11 -6 -16 -23 -6 -48 -49 -39 -65 4 -5 -2 -9 -12 -9 -15 0 -16 -2 -3 -10
12 -8 12 -10 -5 -10 -17 0 -17 -2 -5 -10 12 -8 12 -10 -5 -10 -17 0 -17 -2 -5
-10 12 -8 12 -10 -5 -10 -17 0 -17 -2 -5 -10 12 -8 12 -10 -5 -10 -17 0 -17
-2 -5 -10 13 -8 13 -10 -1 -10 -9 0 -20 -7 -23 -16 -10 -26 -7 -29 10 -8 11
13 10 9 -3 -15 -10 -18 -24 -36 -31 -38 -18 -8 -72 -63 -72 -74 0 -14 -63 -50
-78 -44 -8 3 -10 0 -6 -7 5 -8 1 -9 -12 -4 -10 4 -15 4 -11 0 6 -7 -91 -59
-105 -56 -13 3 12 -50 38 -82 15 -16 22 -32 16 -34 -15 -5 -3 -32 13 -32 7 0
16 -7 19 -16 5 -14 4 -15 -9 -4 -21 17 -19 7 4 -19 27 -31 35 -132 21 -266
-14 -137 -23 -180 -44 -200 -9 -9 -16 -21 -16 -28 0 -6 7 -2 15 9 13 17 14 16
4 -14 -7 -21 -14 -29 -19 -22 -5 8 -9 7 -13 -4 -3 -8 -1 -17 6 -20 9 -3 8 -5
-1 -5 -7 -1 -10 -5 -7 -11 3 -5 1 -10 -4 -10 -6 0 -10 -6 -9 -12 2 -7 -2 -12
-9 -11 -14 3 -37 -33 -29 -46 3 -4 -11 -23 -30 -42 -20 -19 -34 -27 -32 -19 2
8 -3 14 -10 15 -17 0 -34 28 -22 35 6 3 -4 22 -21 41 -17 18 -28 28 -24 22 8
-17 -5 -16 -29 2 -28 21 -113 18 -163 -4 -23 -11 -45 -16 -49 -13 -4 4 -4 2
-1 -4 4 -6 -3 -20 -16 -30 -18 -16 -19 -16 -8 -2 9 12 10 18 2 18 -6 0 -11 -3
-12 -7 -3 -30 -9 -48 -19 -51 -5 -2 -8 -7 -6 -11 2 -3 -2 -33 -10 -66 -17 -72
-18 -154 -3 -192 6 -15 11 -40 11 -55 0 -15 4 -31 10 -34 8 -5 9 -1 5 12 -7
19 -7 19 8 0 8 -10 12 -23 9 -28 -3 -5 0 -7 7 -6 7 2 13 -2 14 -9 0 -14 15
-30 15 -16 0 6 16 3 37 -8 21 -10 44 -19 53 -19 11 0 12 -2 3 -8 -7 -4 54 -9
135 -11 132 -2 154 0 207 20 33 12 79 35 101 50 23 16 45 25 49 21 5 -4 5 -2
2 4 -3 6 10 26 31 45 23 21 29 25 17 9 -11 -14 -24 -28 -30 -32 -6 -5 -6 -8 1
-8 12 0 49 48 49 65 1 22 27 55 43 55 15 0 15 2 2 10 -12 8 -12 10 5 11 11 0
15 3 9 5 -7 3 -10 14 -7 24 3 11 8 18 12 16 4 -3 7 3 7 12 2 34 118 451 125
447 8 -6 22 26 14 33 -3 3 -5 -1 -5 -8 0 -7 -3 -11 -6 -8 -5 6 44 195 66 254
11 28 12 28 26 10 8 -11 14 -15 14 -9 0 6 -7 16 -15 23 -8 7 -12 16 -9 22 4 5
11 5 18 -1 14 -11 26 -5 26 13 0 6 -5 4 -10 -4 -8 -13 -10 -12 -10 3 0 10 -4
15 -10 12 -6 -3 -7 1 -3 10 5 14 8 14 15 3 7 -9 8 -5 4 12 -3 14 0 32 5 40 9
12 10 11 5 -5 -6 -20 -6 -20 9 -1 12 16 12 22 2 35 -10 12 -9 13 1 7 9 -5 13
-3 11 5 -3 28 2 39 19 40 10 0 12 3 5 6 -7 2 -13 9 -13 14 0 6 5 7 12 3 6 -4
8 -3 4 4 -9 16 15 62 33 62 14 0 14 2 1 10 -12 8 -12 10 5 11 11 0 14 3 8 6
-10 3 -10 10 -2 24 5 11 14 17 19 14 5 -3 14 5 20 17 11 22 10 22 -4 4 -15
-18 -16 -18 -16 -2 0 10 8 20 18 23 23 6 59 63 41 63 -7 0 -4 7 7 16 10 8 13
12 5 8 -9 -5 -12 -3 -7 4 4 7 14 12 22 12 8 0 14 5 14 11 0 5 -5 7 -12 3 -7
-5 -8 -3 -3 7 24 39 57 76 84 92 l29 17 7 -30 c4 -16 11 -32 16 -35 5 -4 4 6
-1 21 -6 15 -9 28 -7 30 2 3 11 -14 20 -36 8 -22 11 -38 6 -35 -5 4 -9 1 -9
-4 0 -6 6 -11 14 -11 7 0 21 -12 30 -27 l17 -28 -21 24 c-11 13 -23 22 -25 19
-3 -2 9 -18 27 -34 17 -16 27 -23 23 -15 -6 11 -4 13 11 6 71 -30 152 -29 228
1 15 6 17 4 11 -6 -5 -9 -4 -11 4 -6 6 4 9 11 6 16 -6 9 29 33 37 25 2 -3 20
11 38 30 19 19 31 35 27 35 -4 0 -21 -15 -38 -32 l-31 -33 29 37 c15 21 35 38
43 38 10 0 11 3 4 8 -12 8 8 70 21 64 4 -2 10 0 13 4 4 4 1 4 -7 -1 -10 -6
-12 -1 -6 26 13 58 8 183 -9 224 -9 21 -14 40 -11 43 3 3 5 -1 5 -8 0 -7 2
-11 5 -8 8 8 -6 39 -15 33 -9 -5 -65 64 -65 80 0 5 -7 10 -15 11 -36 2 -41 5
-34 16 4 6 3 8 -3 5 -13 -8 -70 14 -71 26 0 5 -4 12 -8 15 -4 4 -4 1 0 -5 5
-9 0 -13 -14 -13 -12 0 -19 4 -15 9 3 5 0 13 -6 17 -7 4 -9 3 -6 -3z"/>
<path d="M3759 1913 c-1 -5 -1 -10 -1 -13 1 -11 -498 -171 -509 -164 -8 5 -9
3 -4 -6 6 -10 3 -12 -14 -7 -13 3 -20 3 -17 -1 6 -6 -44 -23 -302 -102 -102
-32 -104 -33 -97 -59 3 -14 7 -34 9 -43 1 -10 6 -21 11 -25 4 -5 4 -1 0 7 -5
8 10 -2 33 -22 77 -69 221 -87 396 -48 105 23 109 24 100 8 -4 -7 -3 -8 5 -4
6 4 9 11 7 15 -3 4 32 18 77 31 45 12 216 68 380 122 164 55 301 97 305 94 3
-3 -2 -6 -11 -6 -9 0 -19 -4 -22 -10 -4 -6 2 -7 17 -1 13 4 23 15 23 22 1 8 7
13 14 11 7 -1 10 2 6 8 -3 5 -15 10 -26 10 -11 0 -95 38 -187 85 -92 47 -173
85 -180 85 -7 0 -10 5 -7 10 3 6 4 10 1 10 -3 0 -7 -3 -7 -7z"/>
<path d="M4155 1640 c-44 -16 -86 -27 -93 -25 -8 3 -10 0 -6 -7 5 -8 0 -9 -15
-5 -13 3 -20 3 -17 -1 10 -9 -303 -113 -316 -106 -7 5 -8 2 -3 -6 6 -10 3 -12
-14 -7 -13 3 -20 3 -17 -1 10 -9 -296 -112 -319 -107 -12 3 -14 2 -5 -2 9 -4
-4 -13 -39 -24 -29 -10 -59 -16 -65 -12 -6 3 -8 3 -4 -2 4 -4 -15 -19 -43 -31
-59 -28 -63 -28 -53 -11 4 7 3 9 -2 4 -5 -5 -10 -13 -10 -18 -3 -22 -5 -23
-14 -9 -8 13 -10 12 -10 -3 0 -10 -5 -15 -10 -12 -6 4 -9 1 -8 -7 2 -7 -3 -12
-9 -11 -7 2 -12 -2 -10 -9 1 -7 -4 -12 -12 -13 -8 0 -16 -6 -19 -14 -3 -9 0
-11 9 -7 8 4 6 1 -3 -7 -10 -8 -15 -17 -12 -20 3 -3 1 -14 -5 -24 -8 -14 -11
-15 -11 -3 -2 19 -19 -18 -19 -40 0 -9 3 -8 8 4 4 11 6 -30 3 -91 -3 -70 -1
-113 6 -117 11 -6 483 135 747 224 160 54 170 56 159 38 -4 -7 -3 -8 5 -4 6 4
9 11 7 15 -3 4 21 16 52 26 31 9 161 56 287 102 277 102 271 100 260 83 -5 -9
-4 -11 4 -6 6 4 9 11 6 16 -3 4 27 20 66 34 80 30 83 30 73 14 -4 -7 -3 -8 5
-4 6 4 9 12 6 17 -4 5 4 9 16 9 22 0 19 12 -4 16 -23 3 -211 86 -319 140 -59
30 -118 54 -130 53 -13 0 -59 -13 -103 -29z"/>
<path d="M1514 1372 c6 -11 -41 -16 -146 -16 -9 0 -15 -2 -13 -6 2 -3 -5 -12
-17 -19 -16 -10 -19 -10 -12 1 6 10 3 9 -10 -1 -9 -8 -13 -17 -9 -20 4 -3 8
-46 9 -96 1 -76 6 -106 36 -192 23 -67 31 -104 24 -107 -6 -2 -4 -5 4 -5 8 -1
21 -10 28 -22 8 -12 9 -18 3 -14 -6 3 -11 1 -11 -4 0 -6 6 -11 13 -11 7 0 31
-19 52 -42 l40 -43 -44 40 c-36 32 -40 34 -22 11 22 -30 61 -62 61 -51 0 3 20
-6 45 -21 41 -24 62 -28 201 -37 211 -15 653 3 691 28 14 10 22 12 19 6 -4 -6
-5 -11 -2 -11 3 0 10 10 17 21 7 14 7 19 0 15 -7 -5 -7 3 1 25 15 43 3 135
-28 222 -14 40 -26 80 -27 89 -1 9 -4 15 -8 12 -4 -2 -9 3 -12 10 -3 8 -1 17
6 20 7 2 3 5 -8 5 -17 1 -17 3 -5 11 13 8 12 10 -4 10 -11 0 -16 3 -13 7 4 3
-1 12 -11 20 -9 8 -11 12 -4 8 6 -3 12 -1 12 4 0 6 -8 11 -17 11 -15 0 -16 2
-3 10 15 9 13 11 -12 14 -6 0 -13 7 -16 15 -3 9 0 11 8 6 9 -6 11 -4 6 4 -5 7
-11 10 -14 7 -3 -3 -27 14 -53 39 -42 40 -54 45 -94 45 -26 0 -61 -8 -82 -20
-21 -11 -33 -20 -27 -20 6 0 9 -13 6 -30 -2 -16 1 -44 7 -62 10 -31 10 -32 -5
-13 -16 20 -16 20 -9 -2 5 -17 2 -23 -9 -23 -12 0 -13 6 -5 32 5 17 7 34 4 36
-2 2 -7 -8 -11 -23 -7 -28 -7 -28 -24 16 -11 30 -13 46 -6 51 6 4 8 8 4 9 -19
4 -25 6 -56 26 -66 41 -207 41 -259 0 -15 -12 -23 -15 -18 -8 5 9 4 12 -3 8
-12 -8 -6 -75 14 -136 17 -53 17 -51 4 -51 -5 0 -10 7 -10 15 0 8 -5 15 -10
15 -6 0 -3 -14 6 -31 11 -22 18 -28 24 -20 5 10 9 9 13 -3 4 -11 1 -16 -11
-17 -10 0 -12 -3 -5 -6 7 -2 15 -3 17 -1 5 3 50 -53 68 -86 10 -18 9 -18 -22
0 -17 11 -39 28 -48 39 -17 20 -17 20 6 1 12 -11 25 -16 29 -12 9 8 -38 47
-48 40 -6 -3 -16 11 -24 36 -1 3 -5 14 -10 25 -38 92 -44 114 -32 119 7 2 4 5
-5 5 -10 1 -18 6 -18 12 0 5 5 7 12 3 7 -5 8 -3 4 5 -5 7 -11 10 -14 7 -7 -8
-33 15 -27 24 3 4 -3 14 -12 21 -14 12 -16 12 -8 0 6 -11 3 -13 -16 -8 -13 4
-28 7 -32 7 -5 0 -6 4 -2 9 3 5 0 13 -6 17 -8 4 -9 3 -5 -4z"/>
<path d="M7325 1370 c3 -5 -4 -11 -15 -15 -11 -4 -34 -24 -51 -45 -18 -22 -34
-39 -38 -38 -19 2 -24 -4 -11 -12 12 -8 11 -11 -8 -16 -18 -5 -20 -9 -10 -15
10 -6 8 -9 -7 -9 -16 0 -17 -2 -5 -10 12 -8 12 -10 -3 -16 -9 -3 -14 -10 -11
-15 3 -5 -3 -9 -13 -9 -15 0 -16 -2 -3 -10 12 -8 12 -10 -5 -10 -17 0 -17 -2
-5 -10 12 -8 12 -10 -5 -10 -17 0 -17 -2 -5 -10 12 -8 12 -10 -5 -11 -11 0
-15 -3 -9 -5 7 -3 1 -30 -15 -77 -19 -55 -25 -93 -26 -160 0 -84 1 -90 27
-112 36 -31 144 -40 503 -39 257 0 312 5 380 29 17 6 17 5 5 -5 -13 -10 -13
-11 0 -7 8 2 15 10 15 17 0 7 6 15 14 18 9 3 11 0 6 -9 -5 -8 -4 -11 1 -6 5 5
9 14 9 20 0 7 5 12 12 12 6 0 15 4 20 9 5 6 2 6 -7 1 -8 -5 -4 4 10 19 14 16
35 32 48 37 16 6 22 16 20 31 -2 13 2 23 9 23 6 0 15 4 20 9 5 5 3 6 -4 2 -7
-4 -13 -3 -13 2 0 6 7 12 15 16 8 3 15 11 15 18 0 9 -3 9 -11 -2 -9 -12 -9
-11 -3 5 37 103 56 189 57 267 1 49 6 88 11 88 10 0 -1 14 -12 16 -4 0 -24 8
-44 17 -22 10 -63 17 -98 17 -44 0 -59 3 -54 12 4 7 3 8 -5 4 -6 -4 -9 -11 -6
-16 3 -4 -5 -10 -18 -14 -32 -8 -39 -7 -31 6 5 7 3 8 -5 4 -7 -5 -10 -11 -7
-14 8 -8 -25 -43 -35 -37 -4 3 -11 0 -15 -6 -4 -8 -3 -9 4 -5 7 4 12 2 12 -3
0 -6 -8 -11 -17 -12 -10 0 -13 -3 -6 -5 8 -4 5 -21 -9 -62 -20 -57 -38 -88
-38 -63 0 7 -5 9 -12 5 -8 -5 -6 -11 5 -19 15 -11 13 -16 -19 -54 -20 -22 -45
-46 -57 -52 -22 -10 -22 -10 -2 6 11 9 19 21 17 26 -1 6 2 8 7 5 5 -3 15 2 22
11 12 15 12 16 -3 10 -14 -5 -13 2 7 44 21 45 42 79 33 54 -1 -5 2 -10 7 -10
14 -1 32 56 28 91 -6 54 -13 74 -26 71 -6 -1 -11 3 -10 9 1 6 -3 11 -10 12 -7
0 -32 6 -57 12 -57 15 -143 5 -195 -21 -23 -11 -32 -13 -21 -4 11 8 15 15 9
15 -11 0 -43 -32 -43 -44 0 -4 6 -4 13 0 9 6 9 4 1 -7 -6 -8 -17 -31 -23 -51
-8 -25 -18 -38 -29 -37 -9 0 -12 3 -6 5 6 3 9 17 6 32 l-5 27 -9 -30 c-6 -23
-4 -33 10 -44 16 -12 15 -13 -5 -8 -16 3 -23 1 -23 -9 0 -22 4 -29 14 -26 5 2
-6 -16 -26 -39 -19 -24 -41 -45 -49 -47 -9 -2 -7 2 4 11 10 9 18 18 18 21 -3
23 0 30 7 19 5 -9 11 -6 21 9 11 18 11 20 -2 15 -12 -4 -11 3 4 44 23 60 25
122 3 143 -8 9 -11 16 -6 16 5 0 16 -8 23 -18 13 -16 13 -15 3 3 -8 15 -24 20
-65 22 -30 2 -62 5 -72 7 -9 2 -15 0 -12 -4z"/>
<path d="M1075 1361 c6 -11 -2 -12 -42 -6 -28 3 -78 1 -118 -7 -39 -7 -76 -12
-82 -11 -7 0 -10 -4 -6 -10 4 -6 0 -8 -11 -4 -9 4 -15 3 -12 -2 3 -5 -1 -12
-10 -15 -24 -9 -31 -7 -14 5 13 9 13 10 0 6 -8 -2 -14 -9 -13 -15 1 -5 -5 -16
-14 -24 -12 -9 -15 -9 -9 0 14 23 -9 12 -39 -20 -22 -23 -25 -30 -11 -25 16 6
17 5 6 -8 -7 -8 -16 -12 -21 -10 -4 3 -13 -4 -19 -15 -7 -14 -7 -20 0 -20 7 0
5 -10 -3 -27 -34 -67 -52 -207 -37 -293 6 -36 12 -74 13 -85 1 -11 8 -26 15
-33 7 -8 10 -18 7 -23 -4 -5 0 -9 7 -9 9 0 9 -3 -2 -10 -12 -8 -12 -10 5 -10
17 0 17 -2 5 -10 -13 -8 -13 -10 1 -10 9 0 22 -7 29 -15 8 -9 8 -15 2 -15 -6
0 -13 6 -15 13 -4 9 -6 9 -6 -1 -1 -7 7 -15 17 -19 23 -8 82 -64 77 -73 -3 -4
3 -7 13 -6 9 0 16 -5 15 -11 -2 -7 0 -12 5 -10 13 4 92 -35 87 -44 -3 -4 0
-11 6 -15 8 -5 9 -3 4 6 -6 9 0 10 26 4 19 -5 68 -9 109 -9 66 0 84 4 145 35
39 19 76 35 84 36 7 2 19 8 25 15 8 9 5 9 -14 0 l-25 -12 24 20 c12 12 28 18
35 14 6 -3 8 -2 3 2 -9 10 51 75 69 75 6 0 15 7 18 16 6 15 4 15 -11 3 -15
-12 -15 -11 1 14 10 15 24 27 31 27 15 0 29 35 21 49 -3 5 -21 8 -40 7 -19 -1
-32 2 -30 6 3 4 -2 5 -10 2 -9 -3 -14 -10 -11 -14 7 -11 -20 -31 -30 -22 -5 4
-5 2 -2 -4 4 -7 -11 -24 -35 -40 -36 -25 -52 -29 -123 -32 -76 -4 -84 -2 -111
21 -24 21 -27 28 -16 39 11 11 12 10 7 -3 -4 -10 -2 -20 4 -24 6 -3 9 0 6 7
-3 7 -1 18 3 24 9 15 128 75 134 68 3 -2 11 4 19 13 13 17 13 17 -6 3 -20 -14
-20 -14 -1 7 10 12 23 21 29 20 6 -1 12 4 13 11 1 6 2 17 3 22 0 6 9 10 19 11
9 0 12 3 6 5 -8 3 -7 20 3 56 17 67 17 123 -2 183 -8 27 -12 52 -9 57 3 4 0 8
-6 8 -7 0 -10 7 -6 15 3 8 0 14 -6 12 -6 -1 -13 4 -16 12 -3 9 0 11 9 6 8 -5
1 6 -15 23 -16 17 -32 30 -35 29 -10 -3 -116 53 -113 59 2 3 0 9 -4 12 -4 4
-4 1 1 -7z"/>
<path d="M8480 1350 c-19 -5 -41 -7 -48 -5 -7 3 -11 1 -8 -4 8 -12 -20 -22
-41 -15 -15 5 -16 4 -3 -5 13 -9 13 -11 0 -12 -8 -1 -18 -1 -22 0 -5 0 -7 -5
-5 -11 1 -7 -4 -12 -10 -10 -7 1 -12 -4 -10 -10 1 -7 -4 -12 -10 -10 -7 1 -12
-4 -10 -10 1 -7 -3 -12 -10 -11 -8 2 -10 -4 -6 -14 4 -10 2 -14 -5 -9 -6 3
-13 2 -17 -4 -3 -5 -2 -10 3 -10 5 0 0 -26 -11 -57 -15 -45 -18 -75 -14 -133
3 -41 8 -86 12 -100 5 -20 5 -22 -5 -10 -10 13 -11 13 -7 0 2 -8 9 -15 16 -15
13 0 31 -23 31 -40 0 -5 -5 -3 -10 5 -7 10 -10 11 -10 2 0 -7 8 -15 18 -19 26
-9 52 -35 46 -45 -3 -5 0 -8 7 -7 20 3 149 -58 149 -70 0 -42 -168 -68 -231
-36 -46 24 -70 46 -62 58 3 5 1 7 -5 3 -6 -3 -14 -1 -18 5 -12 20 -68 38 -81
27 -7 -6 -13 -15 -13 -21 0 -6 6 -3 13 7 12 16 13 14 9 -17 -2 -20 3 -48 13
-67 10 -19 12 -29 5 -25 -8 5 -11 3 -8 -6 3 -8 10 -14 15 -14 6 0 15 -3 19 -7
4 -5 2 -8 -6 -8 -10 0 -10 -3 0 -15 7 -9 15 -13 17 -11 3 3 32 -15 65 -40 33
-24 67 -44 75 -44 8 0 11 -5 7 -12 -4 -6 -3 -8 3 -5 5 3 36 -1 69 -10 79 -20
193 -14 259 16 27 12 74 40 105 62 30 22 43 29 28 15 -16 -14 -28 -28 -28 -32
0 -11 70 58 82 81 l11 20 -23 -20 c-16 -14 -13 -6 11 27 19 26 41 47 49 48 13
0 13 1 0 10 -11 7 -11 10 -2 10 7 0 11 4 8 9 -7 11 4 42 13 37 9 -6 16 85 14
194 -1 66 -7 112 -21 152 -15 41 -17 58 -9 62 7 2 4 5 -5 5 -11 1 -15 6 -11
16 3 10 1 15 -7 13 -7 -2 -15 3 -18 11 -3 9 0 11 9 6 8 -5 11 -4 6 1 -5 5 -14
9 -20 9 -7 0 -12 5 -12 12 0 6 -4 15 -9 20 -6 5 -6 2 -1 -7 8 -13 6 -13 -8 -1
-9 7 -15 17 -12 21 3 4 -3 14 -12 21 -14 12 -16 12 -9 0 6 -9 4 -12 -5 -9 -8
3 -14 10 -14 16 0 5 -4 14 -9 19 -6 5 -6 2 -1 -6 6 -11 4 -13 -11 -6 -85 34
-196 50 -254 35z"/>
</g>
</svg>
