
<svg version="1.0" xmlns="http://www.w3.org/2000/svg"
 width="31" height="31" viewBox="10 100 300 300"
 preserveAspectRatio="xMidYMid meet">
 <linearGradient id="foxygradient" x1="0%" y1="0%" x2="100%" y2="0%">
      <stop offset="0%" style="stop-color:rgb(255,255,0);stop-opacity:1" />
      <stop offset="100%" style="stop-color:rgb(255,0,0);stop-opacity:1" />
    </linearGradient>
	 
<g transform="translate(30,40)"
fill="url(#foxygradient)" stroke="none">
	<path d="M288.732 177.902H216.813V97.219C216.813 93.374 213.696 90.257 209.851 90.257H87.148C83.303 90.257 80.186 93.374 80.186 97.219V142.844H8.268C4.423 142.844 1.306 145.961 1.306 149.806V290.038C1.306 293.883 4.423 297 8.268 297H288.733C292.578 297 295.695 293.883 295.695 290.038V184.864C295.694 181.019 292.577 177.902 288.732 177.902ZM74.799 239.825C74.799 243.945 71.46 247.284 67.34 247.284H54.252V254.253H67.34C71.46 254.253 74.799 257.592 74.799 261.712 74.799 265.832 71.46 269.171 67.34 269.171H46.793C42.673 269.171 39.334 265.832 39.334 261.712V239.825C39.334 235.705 42.673 232.366 46.793 232.366H59.881V224.951H46.793C42.673 224.951 39.334 221.612 39.334 217.492S42.673 210.033 46.793 210.033H67.34C71.46 210.033 74.799 213.372 74.799 217.492V239.825ZM155.959 166.032C155.959 170.152 152.62 173.491 148.5 173.491S141.041 170.152 141.041 166.032V141.758H139.365C135.245 141.758 131.906 138.419 131.906 134.299 131.906 130.179 135.245 126.84 139.365 126.84H148.5C152.62 126.84 155.959 130.179 155.959 134.299V166.032ZM259.721 261.712C259.721 265.832 256.382 269.171 252.262 269.171H231.714C227.594 269.171 224.255 265.832 224.255 261.712 224.255 257.592 227.594 254.253 231.714 254.253H244.803V247.284H231.714C227.594 247.284 224.255 243.945 224.255 239.825 224.255 235.705 227.594 232.366 231.714 232.366H244.803V224.951H231.714C227.594 224.951 224.255 221.612 224.255 217.492S227.594 210.033 231.714 210.033H252.262C256.382 210.033 259.721 213.372 259.721 217.492V261.712Z"/>
</g>
</svg>
